<svg width="49" height="49" viewBox="0 0 49 49" fill="none" xmlns="http://www.w3.org/2000/svg">
<g id="Icon" clip-path="url(#clip0_1_401)">
<path id="Vector" d="M23.8087 16.3879C23.8087 14.8254 23.5118 13.3567 22.9181 11.9817C22.2931 10.6067 21.4728 9.40356 20.4572 8.37231C19.4415 7.34106 18.2306 6.52856 16.8243 5.93481C15.4493 5.30981 13.9806 4.99731 12.4181 4.99731C10.8556 4.99731 9.38684 5.30981 8.01184 5.93481C6.60559 6.52856 5.38684 7.34106 4.35559 8.37231C3.32434 9.40356 2.51184 10.6067 1.91809 11.9817C1.32434 13.3567 1.02747 14.8254 1.02747 16.3879C1.02747 17.9817 1.32434 19.4661 1.91809 20.8411C2.51184 22.2161 3.32434 23.4192 4.35559 24.4504C5.38684 25.4817 6.58997 26.2942 7.96497 26.8879C9.37122 27.4817 10.8556 27.7786 12.4181 27.7786C12.7931 27.7786 13.1681 27.7629 13.5431 27.7317C13.9181 27.7004 14.3087 27.6379 14.715 27.5442C14.3712 29.0442 13.9493 30.4661 13.4493 31.8098C12.9806 33.1536 12.4806 34.4036 11.9493 35.5598C11.4181 36.7161 10.8868 37.7786 10.3556 38.7473C9.82434 39.6848 9.37122 40.4973 8.99622 41.1848C8.77747 41.5286 8.58997 41.8489 8.43372 42.1458C8.27747 42.4426 8.13684 42.7004 8.01184 42.9192C7.91809 43.1067 7.82434 43.3801 7.73059 43.7395C7.63684 44.0989 7.74622 44.4036 8.05872 44.6536C8.15247 44.7473 8.25403 44.8176 8.3634 44.8645C8.47278 44.9114 8.58997 44.9348 8.71497 44.9348C8.93372 44.9348 9.1759 44.8645 9.44153 44.7239C9.70715 44.5833 9.94934 44.4348 10.1681 44.2786C10.4806 44.0911 10.8712 43.8333 11.34 43.5051C11.8087 43.177 12.4181 42.7317 13.1681 42.1692L13.215 42.1223C14.5587 40.9348 15.7775 39.6458 16.8712 38.2551C17.965 36.8645 18.9337 35.4036 19.7775 33.8723C20.465 32.6223 21.0665 31.3176 21.5822 29.9583C22.0978 28.5989 22.5275 27.2004 22.8712 25.7629C23.4337 23.4504 23.7384 21.4426 23.7853 19.7395C23.8322 18.0364 23.84 16.9192 23.8087 16.3879ZM21.1837 25.3411C20.8087 26.8723 20.34 28.3567 19.7775 29.7942C19.215 31.2004 18.5587 32.552 17.8087 33.8489C17.0587 35.1458 16.1993 36.3723 15.2306 37.5286C14.2931 38.6848 13.2618 39.7629 12.1368 40.7629C11.9493 40.9192 11.715 41.0989 11.4337 41.302C11.1525 41.5051 10.8556 41.7161 10.5431 41.9348C10.9806 41.1536 11.4962 40.2317 12.09 39.1692C12.6525 38.1067 13.2306 36.9192 13.8243 35.6067C14.4181 34.2942 14.965 32.8723 15.465 31.3411C15.9962 29.8098 16.4025 28.1848 16.6837 26.4661L16.9181 25.0129L15.5587 25.5286C15.0275 25.6848 14.504 25.8098 13.9884 25.9036C13.4728 25.9973 12.9493 26.0442 12.4181 26.0442C11.1056 26.0442 9.85559 25.7942 8.66809 25.2942C7.51184 24.7942 6.49622 24.1067 5.62122 23.2317C4.74622 22.3567 4.05872 21.3254 3.55872 20.1379C3.05872 18.9817 2.80872 17.7317 2.80872 16.3879C2.80872 15.0754 3.05872 13.8254 3.55872 12.6379C4.05872 11.4817 4.74622 10.4661 5.62122 9.59106C6.49622 8.71606 7.51184 8.02856 8.66809 7.52856C9.82434 7.02856 11.0743 6.77856 12.4181 6.77856C13.7306 6.77856 14.9806 7.02856 16.1681 7.52856C17.3243 8.02856 18.34 8.71606 19.215 9.59106C20.09 10.4661 20.7775 11.4817 21.2775 12.6379C21.8087 13.7942 22.0743 15.0442 22.0743 16.3879V16.4348C22.0743 16.4661 22.0743 16.4817 22.0743 16.4817C22.0743 16.4817 22.0743 16.4973 22.0743 16.5286C22.1056 16.9973 22.0978 18.0364 22.0509 19.6458C22.004 21.2551 21.715 23.1536 21.1837 25.3411ZM48.7931 16.4348C48.7931 14.8411 48.4962 13.3567 47.9025 11.9817C47.3087 10.6067 46.4962 9.40356 45.465 8.37231C44.4337 7.34106 43.2306 6.52856 41.8556 5.93481C40.4493 5.34106 38.965 5.04419 37.4025 5.04419C35.84 5.04419 34.3712 5.34106 32.9962 5.93481C31.6212 6.52856 30.4181 7.34106 29.3868 8.37231C28.3556 9.40356 27.5431 10.6067 26.9493 11.9817C26.3556 13.3567 26.0587 14.8254 26.0587 16.3879C26.0587 17.9817 26.3556 19.4661 26.9493 20.8411C27.5431 22.2161 28.3556 23.4192 29.3868 24.4504C30.4181 25.4817 31.6212 26.2942 32.9962 26.8879C34.3712 27.4817 35.84 27.7786 37.4025 27.7786C37.7775 27.7786 38.1603 27.7629 38.5509 27.7317C38.9415 27.7004 39.3243 27.6379 39.6993 27.5442C39.3556 29.0442 38.9493 30.4661 38.4806 31.8098C37.9806 33.1536 37.465 34.4036 36.9337 35.5598C36.4025 36.7161 35.8712 37.7629 35.34 38.7004C34.84 39.6692 34.3868 40.4973 33.9806 41.1848C33.7618 41.5286 33.5743 41.8411 33.4181 42.1223C33.2618 42.4036 33.1368 42.6536 33.0431 42.8723C32.9493 43.0911 32.8478 43.3801 32.7384 43.7395C32.629 44.0989 32.7306 44.4036 33.0431 44.6536C33.1368 44.7473 33.2384 44.8176 33.3478 44.8645C33.4572 44.9114 33.5743 44.9348 33.6993 44.9348C33.9493 44.9348 34.1993 44.8645 34.4493 44.7239C34.6993 44.5833 34.9493 44.4348 35.1993 44.2786C35.5118 44.0911 35.8947 43.8333 36.3478 43.5051C36.8009 43.177 37.4181 42.7317 38.1993 42.1692L38.2462 42.1223C39.5587 40.9348 40.7618 39.6458 41.8556 38.2551C42.9493 36.8645 43.9181 35.4036 44.7618 33.8723C45.4493 32.6223 46.0509 31.3176 46.5665 29.9583C47.0822 28.5989 47.5118 27.2004 47.8556 25.7629C48.4181 23.4504 48.7228 21.4426 48.7697 19.7395C48.8165 18.0364 48.8243 16.9348 48.7931 16.4348ZM46.1681 25.3411C45.8243 26.9036 45.3556 28.3879 44.7618 29.7942C44.1993 31.2004 43.5431 32.552 42.7931 33.8489C42.0431 35.1458 41.1993 36.3723 40.2618 37.5286C39.2931 38.6848 38.2462 39.7786 37.1212 40.8098C36.9337 40.9348 36.6993 41.0989 36.4181 41.302C36.1368 41.5051 35.84 41.7161 35.5275 41.9348C35.965 41.1848 36.4806 40.2629 37.0743 39.1692C37.6681 38.1067 38.254 36.9192 38.8322 35.6067C39.4103 34.2942 39.9493 32.8723 40.4493 31.3411C40.9806 29.8098 41.3868 28.2004 41.6681 26.5129L41.9493 25.0598L40.5431 25.5286C40.0431 25.6848 39.5275 25.8098 38.9962 25.9036C38.465 25.9973 37.9337 26.0442 37.4025 26.0442C36.09 26.0442 34.8556 25.7942 33.6993 25.2942C32.5118 24.7942 31.4806 24.1067 30.6056 23.2317C29.7306 22.3567 29.0431 21.3254 28.5431 20.1379C28.0431 18.9817 27.7931 17.7317 27.7931 16.3879C27.7931 15.0754 28.0431 13.8254 28.5431 12.6379C29.0431 11.4817 29.7306 10.4661 30.6056 9.59106C31.4806 8.71606 32.4962 8.02856 33.6525 7.52856C34.84 7.02856 36.09 6.77856 37.4025 6.77856C38.7462 6.77856 39.9962 7.02856 41.1525 7.52856C42.34 8.02856 43.3712 8.71606 44.2462 9.59106C45.1212 10.4661 45.8087 11.4817 46.3087 12.6379C46.8087 13.8254 47.0587 15.0754 47.0587 16.3879V16.4817C47.0587 16.4817 47.0587 16.4895 47.0587 16.5051C47.0587 16.5208 47.0587 16.5286 47.0587 16.5286C47.09 16.9973 47.0822 18.0364 47.0353 19.6458C46.9884 21.2551 46.6993 23.1536 46.1681 25.3411Z" fill="#6B59ED" fill-opacity="0.33"/>
</g>
<defs>
<clipPath id="clip0_1_401">
<rect width="48" height="48" fill="white" transform="matrix(1 0 0 -1 0.839966 48.3098)"/>
</clipPath>
</defs>
</svg>
