<svg width="51" height="51" viewBox="0 0 51 51" fill="none" xmlns="http://www.w3.org/2000/svg">
<g id="SVG">
<path id="Vector" d="M16.2343 36.0431C15.3857 35.1945 15.8281 35.4338 13.7812 34.8859C12.8525 34.6369 12.0361 34.1584 11.2978 33.5851L6.86714 44.4484C6.43843 45.5002 7.23921 46.6428 8.37397 46.5998L13.5195 46.4035L17.0585 50.1418C17.8398 50.966 19.2109 50.7092 19.6396 49.6574L24.7226 37.1945C23.664 37.7844 22.4892 38.1301 21.2744 38.1301C19.3701 38.1301 17.581 37.3888 16.2343 36.0431ZM44.1328 44.4484L39.7021 33.5851C38.9638 34.1594 38.1474 34.6369 37.2187 34.8859C35.1611 35.4367 35.6123 35.1965 34.7656 36.0431C33.4189 37.3888 31.6289 38.1301 29.7246 38.1301C28.5097 38.1301 27.3349 37.7834 26.2763 37.1945L31.3593 49.6574C31.788 50.7092 33.1601 50.966 33.9404 50.1418L37.4804 46.4035L42.6259 46.5998C43.7607 46.6428 44.5615 45.4992 44.1328 44.4484ZM32.4335 33.8332C33.9257 32.3146 34.0966 32.4455 36.2216 31.8664C37.5781 31.4963 38.6386 30.4172 39.0019 29.0363C39.7324 26.2629 39.5429 26.5978 41.5361 24.5685C42.5292 23.5578 42.9169 22.0842 42.5537 20.7033C41.8242 17.9318 41.8232 18.3185 42.5537 15.5441C42.9169 14.1633 42.5292 12.6896 41.5361 11.6789C39.5429 9.64959 39.7324 9.98358 39.0019 7.21111C38.6386 5.83026 37.5781 4.75115 36.2216 4.38104C33.499 3.63787 33.8271 3.83221 31.832 1.80193C30.8388 0.791193 29.3906 0.395685 28.0341 0.765802C25.3124 1.50799 25.6923 1.50897 22.9658 0.765802C21.6093 0.395685 20.1611 0.790216 19.1679 1.80193C17.1748 3.83123 17.5029 3.63787 14.7792 4.38104C13.4228 4.75115 12.3623 5.83026 11.999 7.21111C11.2695 9.98358 11.458 9.64959 9.46479 11.6789C8.47163 12.6896 8.08296 14.1633 8.44721 15.5441C9.17671 18.3137 9.17768 17.9269 8.44721 20.7023C8.08393 22.0832 8.47163 23.5568 9.46479 24.5685C11.458 26.5978 11.2685 26.2629 11.999 29.0363C12.3623 30.4172 13.4228 31.4963 14.7792 31.8664C16.9648 32.4621 17.1279 32.3683 18.5664 33.8332C19.8583 35.1486 21.871 35.384 23.4238 34.4015C24.0447 34.0074 24.765 33.798 25.5004 33.798C26.2359 33.798 26.9562 34.0074 27.5771 34.4015C29.1289 35.384 31.1416 35.1486 32.4335 33.8332ZM16.2871 17.8137C16.2871 12.6349 20.4121 8.4367 25.4999 8.4367C30.5878 8.4367 34.7128 12.6349 34.7128 17.8137C34.7128 22.9924 30.5878 27.1906 25.4999 27.1906C20.4121 27.1906 16.2871 22.9924 16.2871 17.8137Z" fill="#6B59ED"/>
</g>
</svg>
