<svg width="19" height="19" viewBox="0 0 19 19" fill="none" xmlns="http://www.w3.org/2000/svg">
<g id="Icon" clip-path="url(#clip0_1_299)">
<path id="Vector" d="M15.7919 1.2138H5.69563C5.10639 1.2138 4.59931 1.42343 4.17438 1.84269C3.74945 2.26196 3.53699 2.77187 3.53699 3.37244V16.4603C3.53699 17.0495 3.74945 17.5566 4.17438 17.9815C4.59931 18.4064 5.10639 18.6189 5.69563 18.6189H15.7919C15.8939 18.6189 15.9846 18.5792 16.0639 18.4999C16.1432 18.4206 16.1829 18.3299 16.1829 18.228V18.211V18.194V18.177V1.60473C16.1829 1.49142 16.1432 1.39793 16.0639 1.32428C15.9846 1.25062 15.8939 1.2138 15.7919 1.2138ZM5.32169 17.786C5.02707 17.7067 4.78628 17.5452 4.59931 17.3016C4.41234 17.058 4.31886 16.7775 4.31886 16.4603V5.02116C4.45483 5.13448 4.60781 5.23363 4.77778 5.31861C4.94775 5.4036 5.12906 5.46309 5.32169 5.49708V17.786ZM5.69563 4.74921C5.32169 4.74921 4.99874 4.61323 4.72679 4.34128C4.45483 4.06932 4.31886 3.74638 4.31886 3.37244C4.31886 2.98717 4.45483 2.65856 4.72679 2.3866C4.99874 2.11465 5.32169 1.97867 5.69563 1.97867H14.1432C13.9846 2.1713 13.8599 2.3866 13.7693 2.62456C13.6786 2.86252 13.6333 3.11181 13.6333 3.37244C13.6333 3.63306 13.6786 3.88235 13.7693 4.12031C13.8599 4.35827 13.9846 4.5679 14.1432 4.74921H5.69563ZM12.8854 5.53108V7.7917L12.4265 7.45176C12.3585 7.40643 12.282 7.38377 12.197 7.38377C12.1121 7.38377 12.0356 7.40643 11.9676 7.45176L11.4917 7.8087V5.53108H12.8854ZM15.401 17.837H6.08656V5.53108H10.7268V8.57357C10.7268 8.64156 10.7466 8.70671 10.7863 8.76904C10.8259 8.83136 10.8741 8.87952 10.9308 8.91351C10.9647 8.92484 10.9959 8.93618 11.0242 8.94751C11.0526 8.95884 11.0837 8.96451 11.1177 8.96451C11.1517 8.96451 11.1885 8.95601 11.2282 8.93901C11.2679 8.92201 11.3047 8.90218 11.3387 8.87952L12.2055 8.25062L13.0384 8.87952C13.1064 8.92484 13.1744 8.95034 13.2424 8.95601C13.3104 8.96167 13.3783 8.94751 13.4463 8.91351C13.5143 8.87952 13.5681 8.83136 13.6078 8.76904C13.6475 8.70671 13.6673 8.64156 13.6673 8.57357V5.53108H15.401V17.837ZM15.401 4.69822C15.1177 4.6189 14.8798 4.45742 14.6871 4.2138C14.4945 3.97017 14.3982 3.68972 14.3982 3.37244C14.3982 3.05516 14.4945 2.7747 14.6871 2.53108C14.8798 2.28745 15.1177 2.12598 15.401 2.04666V4.69822ZM12.6475 10.4773H8.8401C8.73812 10.4773 8.6503 10.5141 8.57665 10.5877C8.50299 10.6614 8.46617 10.7492 8.46617 10.8512C8.46617 10.9645 8.50299 11.058 8.57665 11.1316C8.6503 11.2053 8.73812 11.2421 8.8401 11.2421H12.6475C12.7495 11.2421 12.8401 11.2053 12.9194 11.1316C12.9987 11.058 13.0384 10.9645 13.0384 10.8512C13.0384 10.7492 12.9987 10.6614 12.9194 10.5877C12.8401 10.5141 12.7495 10.4773 12.6475 10.4773ZM13.7183 12.8909H7.76928C7.65597 12.8909 7.56248 12.9305 7.48883 13.0098C7.41517 13.0892 7.37835 13.1798 7.37835 13.2818C7.37835 13.3951 7.41517 13.4886 7.48883 13.5622C7.56248 13.6359 7.65597 13.6727 7.76928 13.6727H13.7183C13.8316 13.6727 13.9251 13.6359 13.9987 13.5622C14.0724 13.4886 14.1092 13.3951 14.1092 13.2818C14.1092 13.1798 14.0724 13.0892 13.9987 13.0098C13.9251 12.9305 13.8316 12.8909 13.7183 12.8909Z" fill="#06AD09"/>
</g>
<defs>
<clipPath id="clip0_1_299">
<rect width="18" height="18" fill="white" transform="matrix(1 0 0 -1 0.859985 18.6699)"/>
</clipPath>
</defs>
</svg>
