<svg width="19" height="19" viewBox="0 0 19 19" fill="none" xmlns="http://www.w3.org/2000/svg">
<g id="Icon">
<path id="Vector" d="M10.6333 1.35127C10.6333 1.35127 10.5809 1.29886 10.4761 1.19405C10.3713 1.08923 10.1659 1.03682 9.85997 1.03682C9.55402 1.03682 9.29623 1.14164 9.0866 1.35127C8.87697 1.5609 8.77215 1.81869 8.77215 2.12464C8.77215 2.53257 8.95345 2.84419 9.31606 3.05949V4.30028H6.59651C5.84864 4.30028 5.20841 4.56657 4.67583 5.09915C4.14326 5.63172 3.87697 6.27195 3.87697 7.01983V8.10765H2.24524V12.4589H3.87697V15.1785H15.843V12.4589H17.4747V8.10765H15.843V7.01983C15.843 6.27195 15.5767 5.63172 15.0441 5.09915C14.5115 4.56657 13.8713 4.30028 13.1234 4.30028H10.4039V3.05949C10.7665 2.84419 10.9478 2.53257 10.9478 2.12464C10.9478 1.81869 10.843 1.5609 10.6333 1.35127ZM6.59651 5.3881H13.1234C13.5767 5.3881 13.962 5.54674 14.2792 5.86402C14.5965 6.1813 14.7552 6.56657 14.7552 7.01983V14.0906H13.6673V11.3711H6.0526V14.0906H4.96479V7.01983C4.96479 6.56657 5.12343 6.1813 5.44071 5.86402C5.75799 5.54674 6.14326 5.3881 6.59651 5.3881ZM8.4577 7.87818C8.4577 7.87818 8.4053 7.82578 8.30048 7.72096C8.19566 7.61614 7.99028 7.56374 7.68433 7.56374C7.37838 7.56374 7.12059 7.66855 6.91096 7.87818C6.70133 8.08781 6.59651 8.34561 6.59651 8.65155C6.59651 8.9575 6.70133 9.21529 6.91096 9.42493C7.12059 9.63456 7.37838 9.73937 7.68433 9.73937C7.99028 9.73937 8.24807 9.63456 8.4577 9.42493C8.66734 9.21529 8.77215 8.9575 8.77215 8.65155C8.77215 8.34561 8.66734 8.08781 8.4577 7.87818ZM12.809 7.87818C12.809 7.87818 12.7566 7.82578 12.6518 7.72096C12.5469 7.61614 12.3416 7.56374 12.0356 7.56374C11.7297 7.56374 11.4719 7.66855 11.2622 7.87818C11.0526 8.08781 10.9478 8.34561 10.9478 8.65155C10.9478 8.9575 11.0526 9.21529 11.2622 9.42493C11.4719 9.63456 11.7297 9.73937 12.0356 9.73937C12.3416 9.73937 12.5993 9.63456 12.809 9.42493C13.0186 9.21529 13.1234 8.9575 13.1234 8.65155C13.1234 8.34561 13.0186 8.08781 12.809 7.87818ZM3.33306 9.19546H3.87697V11.3711H3.33306V9.19546ZM15.843 9.19546H16.3869V11.3711H15.843V9.19546ZM7.14042 12.4589H8.22824V14.0906H7.14042V12.4589ZM9.31606 12.4589H10.4039V14.0906H9.31606V12.4589ZM11.4917 12.4589H12.5795V14.0906H11.4917V12.4589Z" fill="#06AD09"/>
</g>
</svg>
