<svg width="19" height="19" viewBox="0 0 19 19" fill="none" xmlns="http://www.w3.org/2000/svg">
<g id="Icon">
<path id="Vector" d="M11.1858 2.96353C11.1858 2.96353 11.0895 2.88705 10.8968 2.73407C10.7042 2.5811 10.3586 2.50461 9.86001 2.50461C9.36142 2.50461 8.9195 2.65759 8.53423 2.96353C8.14896 3.26948 7.894 3.66042 7.76935 4.13634H2.78918V15.0145H16.9308V4.13634H11.9507C11.826 3.66042 11.5711 3.26948 11.1858 2.96353ZM8.90816 4.13634C9.1008 3.77373 9.41808 3.59243 9.86001 3.59243C10.3019 3.59243 10.6192 3.77373 10.8118 4.13634H8.90816ZM3.877 5.22416H15.843V10.1193H3.877V5.22416ZM10.2424 8.64909C10.2424 8.64909 10.2155 8.62217 10.1617 8.56835C10.1079 8.51453 10.0073 8.48761 9.86001 8.48761C9.7127 8.48761 9.58522 8.54144 9.47757 8.64909C9.36992 8.75674 9.3161 8.88421 9.3161 9.03152C9.3161 9.17883 9.36992 9.30631 9.47757 9.41396C9.58522 9.52161 9.7127 9.57543 9.86001 9.57543C10.0073 9.57543 10.1348 9.52161 10.2424 9.41396C10.3501 9.30631 10.4039 9.17883 10.4039 9.03152C10.4039 8.88421 10.3501 8.75674 10.2424 8.64909ZM3.877 11.2072H15.843V13.9267H3.877V11.2072Z" fill="#06AD09"/>
</g>
</svg>
