<svg width="19" height="19" viewBox="0 0 19 19" fill="none" xmlns="http://www.w3.org/2000/svg">
<g id="Icon">
<path id="Vector" d="M12.0356 3.34247V6.31697L10.4039 7.28581V5.63708L9.588 6.147L7.68432 7.28581V5.63708L6.86845 6.147L4.14891 7.77873L3.87695 7.9317V15.3085H15.843V3.34247H12.0356ZM13.1234 4.43028H14.7551V14.2207H4.96477V8.5266L6.5965 7.55776V9.20649L7.41236 8.69657L9.31605 7.55776V9.20649L10.1319 8.69657L12.8515 7.06485L13.1234 6.91187V4.43028ZM6.05259 9.86938V10.9572H7.14041V9.86938H6.05259ZM8.22823 9.86938V10.9572H9.31605V9.86938H8.22823ZM10.4039 9.86938V10.9572H11.4917V9.86938H10.4039ZM12.5795 9.86938V10.9572H13.6673V9.86938H12.5795ZM6.05259 12.045V13.1328H7.14041V12.045H6.05259ZM8.22823 12.045V13.1328H9.31605V12.045H8.22823ZM10.4039 12.045V13.1328H11.4917V12.045H10.4039ZM12.5795 12.045V13.1328H13.6673V12.045H12.5795Z" fill="#06AD09"/>
</g>
</svg>
