<svg width="43" height="44" viewBox="0 0 43 44" fill="none" xmlns="http://www.w3.org/2000/svg">
<g id="Icon" clip-path="url(#clip0_1_123)">
<path id="Vector" d="M13.0596 43.6259C13.0036 43.6259 12.9476 43.6189 12.8916 43.6049C12.8356 43.5909 12.7796 43.5699 12.7236 43.5419C12.5837 43.4579 12.4927 43.3389 12.4507 43.185C12.4087 43.031 12.4157 42.884 12.4717 42.744L19.2324 24.0575L11.0439 21.706C10.932 21.678 10.834 21.622 10.75 21.538C10.666 21.454 10.61 21.37 10.582 21.286C10.554 21.1741 10.554 21.0621 10.582 20.9501C10.61 20.8381 10.652 20.7401 10.708 20.6562L27.3789 0.835846C27.4909 0.723866 27.6239 0.653881 27.7778 0.625885C27.9318 0.597889 28.0648 0.625885 28.1768 0.709869C28.3167 0.765858 28.4147 0.863842 28.4707 1.00381C28.5267 1.14379 28.5407 1.29776 28.5127 1.46573L23.6836 18.1366L31.9561 20.4882C32.068 20.5162 32.166 20.5652 32.25 20.6352C32.334 20.7051 32.39 20.7961 32.418 20.9081C32.446 21.0201 32.446 21.1321 32.418 21.244C32.39 21.356 32.348 21.454 32.292 21.538L13.5635 43.3739C13.5075 43.4579 13.4305 43.5209 13.3325 43.5629C13.2345 43.6049 13.1436 43.6259 13.0596 43.6259ZM12.3457 20.7401L20.2822 22.9657C20.3662 22.9937 20.4432 23.0357 20.5132 23.0917C20.5832 23.1477 20.6462 23.2177 20.7021 23.3017C20.7301 23.3857 20.7441 23.4766 20.7441 23.5746C20.7441 23.6726 20.7301 23.7636 20.7021 23.8476L14.9072 39.8046L30.6543 21.454L22.7178 19.1864C22.6338 19.1584 22.5568 19.1234 22.4868 19.0815C22.4168 19.0395 22.3678 18.9765 22.3398 18.8925C22.2839 18.8085 22.2489 18.7245 22.2349 18.6405C22.2209 18.5565 22.2279 18.4726 22.2559 18.3886L26.4131 4.02725L12.3457 20.7401Z" fill="#6B59ED"/>
</g>
<defs>
<clipPath id="clip0_1_123">
<rect width="43" height="43" fill="white" transform="matrix(1 0 0 -1 0 43.08)"/>
</clipPath>
</defs>
</svg>
