<svg width="19" height="19" viewBox="0 0 19 19" fill="none" xmlns="http://www.w3.org/2000/svg">
<g id="Icon">
<path id="Vector" d="M9.79204 2.91846L9.74105 2.93546L4.96484 4.05728V15.0714L5.40677 15.1394L9.75805 15.9553L9.80904 15.9723H10.9478V2.91846H9.79204ZM12.0357 4.00628V5.0941H13.6674V13.7967H12.0357V14.8845H14.7552V4.00628H12.0357ZM9.86003 4.02328V14.8845L6.05266 14.1706V4.90713L9.86003 4.02328ZM9.21414 9.06294C9.21414 9.06294 9.19714 9.03603 9.16314 8.9822C9.12915 8.92838 9.06116 8.90147 8.95918 8.90147C8.8572 8.90147 8.76938 8.95529 8.69572 9.06294C8.62207 9.17059 8.58524 9.29807 8.58524 9.44538C8.58524 9.59269 8.62207 9.72017 8.69572 9.82781C8.76938 9.93546 8.8572 9.98929 8.95918 9.98929C9.06116 9.98929 9.14615 9.93546 9.21414 9.82781C9.28212 9.72017 9.31612 9.59269 9.31612 9.44538C9.31612 9.29807 9.28212 9.17059 9.21414 9.06294Z" fill="#06AD09"/>
</g>
</svg>
