<svg width="19" height="19" viewBox="0 0 19 19" fill="none" xmlns="http://www.w3.org/2000/svg">
<g id="SVG">
<path id="Vector" d="M3.55999 8.26987C4.5528 8.26987 5.35999 7.46269 5.35999 6.46987C5.35999 5.47706 4.5528 4.66987 3.55999 4.66987C2.56717 4.66987 1.75999 5.47706 1.75999 6.46987C1.75999 7.46269 2.56717 8.26987 3.55999 8.26987ZM16.16 8.26987C17.1528 8.26987 17.96 7.46269 17.96 6.46987C17.96 5.47706 17.1528 4.66987 16.16 4.66987C15.1672 4.66987 14.36 5.47706 14.36 6.46987C14.36 7.46269 15.1672 8.26987 16.16 8.26987ZM17.06 9.16987H15.26C14.765 9.16987 14.3178 9.36956 13.9915 9.693C15.125 10.3146 15.9294 11.4367 16.1037 12.7699H17.96C18.4578 12.7699 18.86 12.3677 18.86 11.8699V10.9699C18.86 9.97706 18.0528 9.16987 17.06 9.16987ZM9.85999 9.16987C11.6009 9.16987 13.01 7.76081 13.01 6.01987C13.01 4.27894 11.6009 2.86987 9.85999 2.86987C8.11905 2.86987 6.70999 4.27894 6.70999 6.01987C6.70999 7.76081 8.11905 9.16987 9.85999 9.16987ZM12.02 10.0699H11.7865C11.2015 10.3511 10.5519 10.5199 9.85999 10.5199C9.16811 10.5199 8.52123 10.3511 7.93342 10.0699H7.69999C5.91124 10.0699 4.45999 11.5211 4.45999 13.3099V14.1199C4.45999 14.8652 5.06467 15.4699 5.80999 15.4699H13.91C14.6553 15.4699 15.26 14.8652 15.26 14.1199V13.3099C15.26 11.5211 13.8087 10.0699 12.02 10.0699ZM5.72842 9.693C5.40217 9.36956 4.95499 9.16987 4.45999 9.16987H2.65999C1.66717 9.16987 0.859985 9.97706 0.859985 10.9699V11.8699C0.859985 12.3677 1.26217 12.7699 1.75999 12.7699H3.61342C3.79061 11.4367 4.59499 10.3146 5.72842 9.693Z" fill="#06AD09"/>
</g>
</svg>
