<svg width="19" height="19" viewBox="0 0 19 19" fill="none" xmlns="http://www.w3.org/2000/svg">
<g id="Icon">
<path id="Vector" d="M14.4747 5.21065C14.4747 5.21065 14.156 4.89195 13.5186 4.25456C12.8812 3.61717 11.6617 3.29847 9.85998 3.29847C8.05828 3.29847 6.52004 3.93586 5.24525 5.21065C3.97046 6.48544 3.33307 8.02368 3.33307 9.82538C3.33307 11.6271 3.97046 13.1653 5.24525 14.4401C6.52004 15.7149 8.05828 16.3523 9.85998 16.3523C11.6617 16.3523 13.1999 15.7149 14.4747 14.4401C15.7495 13.1653 16.3869 11.6271 16.3869 9.82538C16.3869 8.02368 15.7495 6.48544 14.4747 5.21065ZM6.01012 5.97552C6.01012 5.97552 6.275 5.71065 6.80474 5.18091C7.33449 4.65116 8.3529 4.38629 9.85998 4.38629C11.3671 4.38629 12.6503 4.91603 13.7098 5.97552C14.7693 7.03501 15.2991 8.3183 15.2991 9.82538C15.2991 11.3325 14.7693 12.6158 13.7098 13.6752C12.6503 14.7347 11.3671 15.2645 9.85998 15.2645C8.3529 15.2645 7.06961 14.7347 6.01012 13.6752C4.95063 12.6158 4.42089 11.3325 4.42089 9.82538C4.42089 8.3183 4.95063 7.03501 6.01012 5.97552ZM12.8685 6.05201L11.8317 7.07184L12.6135 7.85371L13.6334 6.81688L12.8685 6.05201ZM11.7807 7.9047C11.7807 7.9047 11.6475 7.77156 11.3812 7.50527C11.1149 7.23898 10.6079 7.10584 9.85998 7.10584C9.11211 7.10584 8.47188 7.37212 7.9393 7.9047C7.40672 8.43728 7.14043 9.07751 7.14043 9.82538C7.14043 10.5733 7.40672 11.2135 7.9393 11.7461C8.47188 12.2786 9.11211 12.5449 9.85998 12.5449C10.6079 12.5449 11.2481 12.2786 11.7807 11.7461C12.3132 11.2135 12.5795 10.5733 12.5795 9.82538C12.5795 9.07751 12.3132 8.43728 11.7807 7.9047ZM8.70417 8.66958C8.70417 8.66958 8.78349 8.59025 8.94213 8.43161C9.10077 8.27297 9.40672 8.19365 9.85998 8.19365C10.3132 8.19365 10.6985 8.35229 11.0158 8.66958C11.3331 8.98686 11.4917 9.37212 11.4917 9.82538C11.4917 10.2786 11.3331 10.6639 11.0158 10.9812C10.6985 11.2985 10.3132 11.4571 9.85998 11.4571C9.40672 11.4571 9.02145 11.2985 8.70417 10.9812C8.38689 10.6639 8.22825 10.2786 8.22825 9.82538C8.22825 9.37212 8.38689 8.98686 8.70417 8.66958ZM10.2424 9.44295C10.2424 9.44295 10.2155 9.41603 10.1617 9.36221C10.1079 9.30839 10.0073 9.28147 9.85998 9.28147C9.71267 9.28147 9.58519 9.3353 9.47754 9.44295C9.3699 9.55059 9.31607 9.67807 9.31607 9.82538C9.31607 9.97269 9.3699 10.1002 9.47754 10.2078C9.58519 10.3155 9.71267 10.3693 9.85998 10.3693C10.0073 10.3693 10.1348 10.3155 10.2424 10.2078C10.3501 10.1002 10.4039 9.97269 10.4039 9.82538C10.4039 9.67807 10.3501 9.55059 10.2424 9.44295ZM7.10644 11.7971L6.08661 12.8339L6.85148 13.5988L7.88831 12.5789L7.10644 11.7971Z" fill="#06AD09"/>
</g>
</svg>
