<svg width="19" height="19" viewBox="0 0 19 19" fill="none" xmlns="http://www.w3.org/2000/svg">
<g id="Icon">
<path id="Vector" d="M14.4747 4.46065C14.4747 4.46065 14.156 4.14195 13.5186 3.50456C12.8812 2.86717 11.6617 2.54847 9.85998 2.54847C8.05828 2.54847 6.52004 3.18586 5.24525 4.46065C3.97046 5.73544 3.33307 7.27368 3.33307 9.07538C3.33307 10.8771 3.97046 12.4153 5.24525 13.6901C6.52004 14.9649 8.05828 15.6023 9.85998 15.6023C11.6617 15.6023 13.1999 14.9649 14.4747 13.6901C15.7495 12.4153 16.3869 10.8771 16.3869 9.07538C16.3869 7.27368 15.7495 5.73544 14.4747 4.46065ZM6.01012 5.22552C6.01012 5.22552 6.275 4.96065 6.80474 4.43091C7.33449 3.90116 8.3529 3.63629 9.85998 3.63629C11.3671 3.63629 12.6503 4.16603 13.7098 5.22552C14.7693 6.28501 15.2991 7.5683 15.2991 9.07538C15.2991 10.5825 14.7693 11.8658 13.7098 12.9252C12.6503 13.9847 11.3671 14.5145 9.85998 14.5145C8.3529 14.5145 7.06961 13.9847 6.01012 12.9252C4.95063 11.8658 4.42089 10.5825 4.42089 9.07538C4.42089 7.5683 4.95063 6.28501 6.01012 5.22552ZM11.3982 6.44932C11.3982 6.44932 11.292 6.34309 11.0795 6.13062C10.8671 5.91816 10.4605 5.81193 9.85998 5.81193C9.25941 5.81193 8.74667 6.02439 8.32174 6.44932C7.89681 6.87425 7.68434 7.387 7.68434 7.98756H8.77216C8.77216 7.68161 8.87698 7.42382 9.08661 7.21419C9.29624 7.00456 9.55403 6.89974 9.85998 6.89974C10.1659 6.89974 10.4237 7.00456 10.6334 7.21419C10.843 7.42382 10.9478 7.68161 10.9478 7.98756C10.9478 8.19153 10.8855 8.3785 10.7608 8.54847C10.6362 8.71844 10.4775 8.83742 10.2849 8.90541L10.0639 8.9734C9.83732 9.04139 9.65602 9.1717 9.52004 9.36433C9.38406 9.55697 9.31607 9.77227 9.31607 10.0102V10.7071H10.4039V10.0102L10.6249 9.94224C11.0441 9.80626 11.3841 9.55697 11.6447 9.19436C11.9053 8.83176 12.0356 8.42949 12.0356 7.98756C12.0356 7.387 11.8232 6.87425 11.3982 6.44932ZM9.31607 11.251V12.3388H10.4039V11.251H9.31607Z" fill="#06AD09"/>
</g>
</svg>
