<svg width="19" height="19" viewBox="0 0 19 19" fill="none" xmlns="http://www.w3.org/2000/svg">
<g id="Icon" clip-path="url(#clip0_1_295)">
<path id="Vector" d="M10.5229 12.6819C10.5229 12.6819 10.5371 12.6961 10.5654 12.7244C10.5937 12.7527 10.6476 12.7669 10.7269 12.7669C10.8062 12.7669 10.8742 12.7386 10.9308 12.6819C10.9875 12.6253 11.0158 12.5573 11.0158 12.478V8.41564H11.8827C12.2906 8.41564 12.6362 8.274 12.9195 7.99071C13.2028 7.70742 13.3444 7.36748 13.3444 6.97088C13.3444 6.57428 13.2028 6.23433 12.9195 5.95105C12.6362 5.66776 12.2906 5.52612 11.8827 5.52612C11.4861 5.52612 11.1461 5.66776 10.8629 5.95105C10.5796 6.23433 10.4379 6.57428 10.4379 6.97088V7.83773H9.28212V6.97088C9.28212 6.57428 9.14047 6.23433 8.85719 5.95105C8.5739 5.66776 8.23396 5.52612 7.83736 5.52612C7.42943 5.52612 7.08382 5.66776 6.80053 5.95105C6.51724 6.23433 6.3756 6.57428 6.3756 6.97088C6.3756 7.36748 6.51724 7.70742 6.80053 7.99071C7.08382 8.274 7.42943 8.41564 7.83736 8.41564H8.70421V12.478C8.70421 12.5573 8.73254 12.6253 8.7892 12.6819C8.84586 12.7386 8.91385 12.7669 8.99317 12.7669C9.07248 12.7669 9.14047 12.7386 9.19713 12.6819C9.25379 12.6253 9.28212 12.5573 9.28212 12.478V8.41564H10.4379V12.478C10.4379 12.5573 10.4663 12.6253 10.5229 12.6819ZM11.0158 6.97088C11.0158 6.73292 11.1008 6.52895 11.2708 6.35898C11.4408 6.18901 11.6447 6.10402 11.8827 6.10402C12.132 6.10402 12.3416 6.18901 12.5116 6.35898C12.6816 6.52895 12.7665 6.73292 12.7665 6.97088C12.7665 7.20884 12.6816 7.41281 12.5116 7.58278C12.3416 7.75275 12.132 7.83773 11.8827 7.83773H11.0158V6.97088ZM8.70421 7.83773H7.83736C7.58807 7.83773 7.37843 7.75275 7.20846 7.58278C7.03849 7.41281 6.95351 7.20884 6.95351 6.97088C6.95351 6.73292 7.03849 6.52895 7.20846 6.35898C7.37843 6.18901 7.58807 6.10402 7.83736 6.10402C8.07532 6.10402 8.27928 6.18901 8.44926 6.35898C8.61923 6.52895 8.70421 6.73292 8.70421 6.97088V7.83773ZM3.23113 2.0757L4.33594 3.01054C4.36994 3.0332 4.4011 3.0502 4.42943 3.06153C4.45775 3.07286 4.48892 3.07853 4.52291 3.07853C4.56824 3.07853 4.61073 3.07003 4.65039 3.05303C4.69005 3.03603 4.72121 3.01054 4.74387 2.97654C4.80053 2.90856 4.82603 2.8349 4.82036 2.75558C4.81469 2.67626 4.77787 2.61394 4.70988 2.56861L3.60506 1.63377C3.53707 1.57711 3.46342 1.55445 3.3841 1.56578C3.30478 1.57711 3.24246 1.6111 3.19713 1.66776C3.14047 1.72442 3.11498 1.79524 3.12064 1.88023C3.12631 1.96521 3.16314 2.03037 3.23113 2.0757ZM3.41809 4.60827L2.05832 4.11535C1.979 4.08136 1.90251 4.08136 1.82886 4.11535C1.7552 4.14935 1.70705 4.20601 1.68438 4.28533C1.65039 4.36465 1.65039 4.44113 1.68438 4.51479C1.71838 4.58844 1.77503 4.6366 1.85435 4.65926L3.21413 5.15218C3.23679 5.16351 3.25379 5.16918 3.26512 5.16918H3.31611C3.37277 5.16918 3.42659 5.15218 3.47758 5.11819C3.52858 5.08419 3.5654 5.03887 3.58807 4.98221C3.62206 4.90289 3.62206 4.8264 3.58807 4.75275C3.55407 4.67909 3.49741 4.63094 3.41809 4.60827ZM15.1971 3.07853C15.2311 3.07853 15.2623 3.07286 15.2906 3.06153C15.3189 3.0502 15.3501 3.0332 15.3841 3.01054L16.4889 2.0757C16.5569 2.03037 16.5937 1.96521 16.5994 1.88023C16.6051 1.79524 16.5796 1.72442 16.5229 1.66776C16.4776 1.6111 16.4153 1.57711 16.3359 1.56578C16.2566 1.55445 16.183 1.57711 16.115 1.63377L15.0102 2.56861C14.9422 2.61394 14.9053 2.67626 14.8997 2.75558C14.894 2.8349 14.9195 2.90856 14.9762 2.97654C14.9988 3.01054 15.03 3.03603 15.0697 3.05303C15.1093 3.07003 15.1518 3.07853 15.1971 3.07853ZM2.89118 6.97088H1.44642C1.3671 6.97088 1.29911 6.99921 1.24246 7.05587C1.1858 7.11252 1.15747 7.18051 1.15747 7.25983C1.15747 7.33915 1.1858 7.40714 1.24246 7.4638C1.29911 7.52045 1.3671 7.54878 1.44642 7.54878H2.89118C2.9705 7.54878 3.03849 7.52045 3.09515 7.4638C3.15181 7.40714 3.18013 7.33915 3.18013 7.25983C3.18013 7.18051 3.15181 7.11252 3.09515 7.05587C3.03849 6.99921 2.9705 6.97088 2.89118 6.97088ZM18.0357 4.28533C18.013 4.20601 17.9648 4.14935 17.8912 4.11535C17.8175 4.08136 17.741 4.08136 17.6617 4.11535L16.3019 4.60827C16.2226 4.63094 16.166 4.67909 16.132 4.75275C16.098 4.8264 16.098 4.90289 16.132 4.98221C16.1546 5.03887 16.1915 5.08419 16.2425 5.11819C16.2934 5.15218 16.3473 5.16918 16.4039 5.16918H16.4549L16.5059 5.15218L17.8657 4.65926C17.945 4.62527 18.0017 4.57428 18.0357 4.50629C18.0697 4.4383 18.0697 4.36465 18.0357 4.28533ZM12.1206 1.92272C12.1206 1.92272 11.945 1.84623 11.5937 1.69326C11.2425 1.54028 10.6646 1.4638 9.86002 1.4638C9.05549 1.4638 8.30195 1.61677 7.5994 1.92272C6.89685 2.22867 6.28212 2.64227 5.7552 3.16351C5.22829 3.68476 4.81753 4.29666 4.52291 4.99921C4.21696 5.71309 4.06399 6.46663 4.06399 7.25983C4.06399 7.87173 4.12064 8.44963 4.23396 8.99354C4.3586 9.52612 4.54557 10.0304 4.79486 10.5063C5.04416 10.9822 5.36144 11.4241 5.74671 11.8321C6.12064 12.2513 6.56257 12.6423 7.07248 13.0049C7.08382 13.0162 7.09232 13.0219 7.09798 13.0219C7.10365 13.0219 7.11214 13.0275 7.12348 13.0389L7.29345 13.1748L7.51441 13.7018C7.35577 13.7697 7.22263 13.8746 7.11498 14.0162C7.00733 14.1578 6.95351 14.325 6.95351 14.5176C6.95351 14.6309 6.97333 14.7358 7.013 14.8321C7.05266 14.9284 7.10648 15.0162 7.17447 15.0955C7.10648 15.1748 7.05266 15.2627 7.013 15.359C6.97333 15.4553 6.95351 15.5601 6.95351 15.6734C6.95351 15.7867 6.97333 15.8916 7.013 15.9879C7.05266 16.0842 7.10648 16.172 7.17447 16.2513C7.10648 16.3307 7.05266 16.4213 7.013 16.5233C6.97333 16.6253 6.95351 16.7273 6.95351 16.8292C6.95351 17.0785 7.03849 17.2882 7.20846 17.4581C7.37843 17.6281 7.58807 17.7131 7.83736 17.7131C7.91668 17.7131 7.98467 17.6848 8.04132 17.6281C8.09798 17.5714 8.12631 17.4978 8.12631 17.4071C8.12631 17.3278 8.09798 17.2598 8.04132 17.2032C7.98467 17.1465 7.91668 17.1182 7.83736 17.1182C7.74671 17.1182 7.67305 17.0899 7.61639 17.0332C7.55974 16.9765 7.53141 16.9086 7.53141 16.8292C7.53141 16.7499 7.55974 16.6819 7.61639 16.6253C7.67305 16.5686 7.74671 16.5403 7.83736 16.5403H10.7269C10.8062 16.5403 10.8742 16.512 10.9308 16.4553C10.9875 16.3986 11.0158 16.3307 11.0158 16.2513C11.0158 16.172 10.9875 16.104 10.9308 16.0474C10.8742 15.9907 10.8062 15.9624 10.7269 15.9624H7.83736C7.74671 15.9624 7.67305 15.9341 7.61639 15.8774C7.55974 15.8207 7.53141 15.7527 7.53141 15.6734C7.53141 15.5941 7.55974 15.5261 7.61639 15.4695C7.67305 15.4128 7.74671 15.3845 7.83736 15.3845H10.7269C10.8062 15.3845 10.8742 15.3561 10.9308 15.2995C10.9875 15.2428 11.0158 15.1748 11.0158 15.0955C11.0158 15.0162 10.9875 14.9482 10.9308 14.8916C10.8742 14.8349 10.8062 14.8066 10.7269 14.8066H7.83736C7.74671 14.8066 7.67305 14.7782 7.61639 14.7216C7.55974 14.6649 7.53141 14.5969 7.53141 14.5176C7.53141 14.4383 7.55974 14.3703 7.61639 14.3137C7.67305 14.257 7.74671 14.2287 7.83736 14.2287H10.7269C10.8062 14.2287 10.8742 14.2003 10.9308 14.1437C10.9875 14.087 11.0158 14.019 11.0158 13.9397C11.0158 13.8604 10.9875 13.7924 10.9308 13.7358C10.8742 13.6791 10.8062 13.6508 10.7269 13.6508H8.09232C8.04699 13.2768 7.93651 13.0049 7.76087 12.8349C7.58523 12.6649 7.46909 12.5629 7.41243 12.529C6.92518 12.189 6.51158 11.8264 6.17164 11.4411C5.82036 11.0672 5.53141 10.6649 5.30478 10.2343C5.07815 9.80374 4.90818 9.34482 4.79486 8.85756C4.69288 8.35898 4.64189 7.8264 4.64189 7.25983C4.64189 6.54595 4.77787 5.87173 5.04982 5.23717C5.32178 4.60261 5.69571 4.04737 6.17164 3.57145C6.64756 3.09552 7.2028 2.72159 7.83736 2.44963C8.46059 2.17768 9.13481 2.0417 9.86002 2.0417C10.5852 2.0417 11.2595 2.17768 11.8827 2.44963C12.5172 2.72159 13.0725 3.09552 13.5484 3.57145C14.0243 4.04737 14.3983 4.60261 14.6702 5.23717C14.9422 5.87173 15.0782 6.54595 15.0782 7.25983C15.0782 7.8264 15.0272 8.35898 14.9252 8.85756C14.8119 9.34482 14.6419 9.80374 14.4153 10.2343C14.1886 10.6649 13.8997 11.0672 13.5484 11.4411C13.2085 11.8264 12.7949 12.189 12.3076 12.529C12.251 12.5629 12.1178 12.6876 11.9082 12.9029C11.6985 13.1182 11.5937 13.4638 11.5937 13.9397C11.5937 14.019 11.6221 14.087 11.6787 14.1437C11.7354 14.2003 11.8034 14.2287 11.8827 14.2287C11.9733 14.2287 12.047 14.257 12.1036 14.3137C12.1603 14.3703 12.1886 14.4383 12.1886 14.5176C12.1886 14.5969 12.1603 14.6649 12.1036 14.7216C12.047 14.7782 11.9733 14.8066 11.8827 14.8066C11.8034 14.8066 11.7354 14.8349 11.6787 14.8916C11.6221 14.9482 11.5937 15.0162 11.5937 15.0955C11.5937 15.1748 11.6221 15.2428 11.6787 15.2995C11.7354 15.3561 11.8034 15.3845 11.8827 15.3845C11.9733 15.3845 12.047 15.4128 12.1036 15.4695C12.1603 15.5261 12.1886 15.5941 12.1886 15.6734C12.1886 15.7527 12.1603 15.8207 12.1036 15.8774C12.047 15.9341 11.9733 15.9624 11.8827 15.9624C11.8034 15.9624 11.7354 15.9907 11.6787 16.0474C11.6221 16.104 11.5937 16.172 11.5937 16.2513C11.5937 16.3307 11.6221 16.3986 11.6787 16.4553C11.7354 16.512 11.8034 16.5403 11.8827 16.5403C11.9733 16.5403 12.047 16.5686 12.1036 16.6253C12.1603 16.6819 12.1886 16.7499 12.1886 16.8292C12.1886 16.9199 12.1603 16.9907 12.1036 17.0417C12.047 17.0927 11.9733 17.1182 11.8827 17.1182H8.99317C8.91385 17.1182 8.84586 17.1465 8.7892 17.2032C8.73254 17.2598 8.70421 17.3278 8.70421 17.4071V18.002C8.70421 18.24 8.7892 18.444 8.95917 18.6139C9.12914 18.7839 9.33311 18.8689 9.57107 18.8689H10.149C10.3869 18.8689 10.5909 18.7839 10.7609 18.6139C10.9308 18.444 11.0158 18.24 11.0158 18.002V17.7131H11.8827C12.132 17.7131 12.3416 17.6281 12.5116 17.4581C12.6816 17.2882 12.7665 17.0785 12.7665 16.8292C12.7665 16.7273 12.7467 16.6253 12.707 16.5233C12.6674 16.4213 12.6136 16.3307 12.5456 16.2513C12.6136 16.172 12.6674 16.0842 12.707 15.9879C12.7467 15.8916 12.7665 15.7867 12.7665 15.6734C12.7665 15.5601 12.7467 15.4553 12.707 15.359C12.6674 15.2627 12.6136 15.1748 12.5456 15.0955C12.6136 15.0162 12.6674 14.9284 12.707 14.8321C12.7467 14.7358 12.7665 14.6309 12.7665 14.5176C12.7665 14.325 12.7127 14.1578 12.6051 14.0162C12.4974 13.8746 12.3643 13.7697 12.2056 13.7018C12.2396 13.4525 12.3133 13.2768 12.4266 13.1748L12.5966 13.0389C12.6079 13.0275 12.6164 13.0219 12.6221 13.0219C12.6277 13.0219 12.6362 13.0162 12.6476 13.0049C13.1575 12.6423 13.5994 12.2513 13.9733 11.8321C14.3586 11.4241 14.6759 10.9822 14.9252 10.5063C15.1745 10.0304 15.3614 9.52612 15.4861 8.99354C15.5994 8.44963 15.6561 7.87173 15.6561 7.25983C15.6561 6.46663 15.5031 5.71309 15.1971 4.99921C14.9025 4.29666 14.4917 3.68476 13.9648 3.16351C13.4379 2.64227 12.8232 2.22867 12.1206 1.92272ZM10.4379 18.002C10.4379 18.0814 10.4096 18.1493 10.3529 18.206C10.2963 18.2627 10.2283 18.291 10.149 18.291H9.57107C9.49175 18.291 9.42376 18.2627 9.3671 18.206C9.31045 18.1493 9.28212 18.0814 9.28212 18.002V17.7131H10.4379V18.002ZM18.2736 6.97088H16.8289C16.7495 6.97088 16.6816 6.99921 16.6249 7.05587C16.5682 7.11252 16.5399 7.18051 16.5399 7.25983C16.5399 7.33915 16.5682 7.40714 16.6249 7.4638C16.6816 7.52045 16.7495 7.54878 16.8289 7.54878H18.2736C18.3529 7.54878 18.4209 7.52045 18.4776 7.4638C18.5342 7.40714 18.5626 7.33915 18.5626 7.25983C18.5626 7.18051 18.5342 7.11252 18.4776 7.05587C18.4209 6.99921 18.3529 6.97088 18.2736 6.97088Z" fill="#06AD09"/>
</g>
<defs>
<clipPath id="clip0_1_295">
<rect width="18" height="18" fill="white" transform="matrix(1 0 0 -1 0.859985 18.9199)"/>
</clipPath>
</defs>
</svg>
