<svg width="19" height="19" viewBox="0 0 19 19" fill="none" xmlns="http://www.w3.org/2000/svg">
<g id="Icon" clip-path="url(#clip0_1_255)">
<path id="Vector" d="M15.7311 4.93665H3.98889C3.88342 4.93665 3.7926 4.97473 3.71643 5.0509C3.64026 5.12708 3.60217 5.2179 3.60217 5.32336V11.1769C3.60217 11.2823 3.64026 11.3732 3.71643 11.4493C3.7926 11.5255 3.88342 11.5636 3.98889 11.5636C4.09436 11.5636 4.18518 11.5255 4.26135 11.4493C4.33752 11.3732 4.37561 11.2823 4.37561 11.1769V5.71008H15.3444V11.1769C15.3444 11.2823 15.3824 11.3732 15.4586 11.4493C15.5348 11.5255 15.6256 11.5636 15.7311 11.5636C15.8365 11.5636 15.9274 11.5255 16.0035 11.4493C16.0797 11.3732 16.1178 11.2823 16.1178 11.1769V5.32336C16.1178 5.2179 16.0797 5.12708 16.0035 5.0509C15.9274 4.97473 15.8365 4.93665 15.7311 4.93665ZM18.5084 12.548H17.8053V4.4093C17.8053 4.0929 17.691 3.82043 17.4625 3.59192C17.234 3.3634 16.9557 3.24915 16.6276 3.24915H3.09241C2.76428 3.24915 2.48596 3.3634 2.25745 3.59192C2.02893 3.82043 1.91467 4.0929 1.91467 4.4093V12.548H1.21155C1.1178 12.548 1.03577 12.5831 0.965454 12.6534C0.895142 12.7238 0.859985 12.8058 0.859985 12.8995V13.5851C0.859985 14.0538 1.02698 14.4581 1.36096 14.798C1.69495 15.1378 2.10217 15.3077 2.58264 15.3077H17.1373C17.6178 15.3077 18.025 15.1378 18.359 14.798C18.693 14.4581 18.86 14.0538 18.86 13.5851V12.8995C18.86 12.8058 18.8248 12.7238 18.7545 12.6534C18.6842 12.5831 18.6022 12.548 18.5084 12.548ZM2.68811 4.4093C2.68811 4.30383 2.72913 4.21301 2.81116 4.13684C2.89319 4.06067 2.98694 4.02258 3.09241 4.02258H16.6276C16.733 4.02258 16.8239 4.06067 16.9 4.13684C16.9762 4.21301 17.0143 4.30383 17.0143 4.4093V12.548H11.776C11.7643 12.548 11.7526 12.548 11.7408 12.548C11.7291 12.548 11.7174 12.5538 11.7057 12.5656C11.6237 12.5773 11.5563 12.6154 11.5035 12.6798C11.4508 12.7443 11.4244 12.8175 11.4244 12.8995C11.4244 13.0519 11.3717 13.1779 11.2662 13.2775C11.1608 13.3771 11.0319 13.4269 10.8795 13.4269H8.84045C8.68811 13.4269 8.5592 13.3771 8.45374 13.2775C8.34827 13.1779 8.29553 13.0519 8.29553 12.8995C8.29553 12.8058 8.26038 12.7238 8.19006 12.6534C8.11975 12.5831 8.03772 12.548 7.94397 12.548H2.68811V4.4093ZM18.1569 13.5851C18.1569 13.8663 18.0573 14.1066 17.858 14.3058C17.6588 14.505 17.4186 14.6046 17.1373 14.6046H2.58264C2.30139 14.6046 2.06116 14.505 1.86194 14.3058C1.66272 14.1066 1.56311 13.8663 1.56311 13.5851V13.2511H7.64514C7.72717 13.5089 7.87659 13.7198 8.09338 13.8839C8.31018 14.048 8.5592 14.13 8.84045 14.13H10.8795C11.1608 14.13 11.4098 14.048 11.6266 13.8839C11.8434 13.7198 11.9928 13.5089 12.0748 13.2511H18.1569V13.5851ZM10.4401 7.18665C10.358 7.10461 10.2643 7.0636 10.1588 7.0636C10.0533 7.0636 9.95959 7.10461 9.87756 7.18665L7.45178 9.61243C7.36975 9.69446 7.32874 9.78821 7.32874 9.89368C7.32874 9.99915 7.36975 10.087 7.45178 10.1573C7.48694 10.2042 7.52795 10.2365 7.57483 10.254C7.6217 10.2716 7.66858 10.2804 7.71545 10.2804C7.77405 10.2804 7.82678 10.2716 7.87366 10.254C7.92053 10.2365 7.96155 10.2042 7.9967 10.1573L10.4401 7.73157C10.5104 7.64954 10.5455 7.55579 10.5455 7.45032C10.5455 7.34485 10.5104 7.25696 10.4401 7.18665ZM11.8815 8.5929C11.7994 8.52258 11.7057 8.48743 11.6002 8.48743C11.4948 8.48743 11.4069 8.52258 11.3365 8.5929L10.3522 9.55969C10.2819 9.64172 10.2467 9.73547 10.2467 9.84094C10.2467 9.94641 10.2819 10.0343 10.3522 10.1046C10.399 10.1515 10.4459 10.1837 10.4928 10.2013C10.5397 10.2189 10.5865 10.2277 10.6334 10.2277C10.6803 10.2277 10.7272 10.2189 10.774 10.2013C10.8209 10.1837 10.8678 10.1515 10.9147 10.1046L11.8815 9.13782C11.9518 9.0675 11.9869 8.97668 11.9869 8.86536C11.9869 8.75403 11.9518 8.66321 11.8815 8.5929Z" fill="#06AD09"/>
</g>
<defs>
<clipPath id="clip0_1_255">
<rect width="18" height="18" fill="white" transform="matrix(1 0 0 -1 0.859985 18.0499)"/>
</clipPath>
</defs>
</svg>
