<svg width="19" height="19" viewBox="0 0 19 19" fill="none" xmlns="http://www.w3.org/2000/svg">
<g id="Icon">
<path id="Vector" d="M5.23673 3.71246C4.86279 3.71246 4.54268 3.8456 4.27639 4.11189C4.0101 4.37818 3.87695 4.6983 3.87695 5.07223V14.3187C3.87695 14.6926 4.0101 15.0127 4.27639 15.279C4.54268 15.5453 4.86279 15.6785 5.23673 15.6785H14.4832C14.8571 15.6785 15.1772 15.5453 15.4435 15.279C15.7098 15.0127 15.843 14.6926 15.843 14.3187V5.07223C15.843 4.6983 15.7098 4.37818 15.4435 4.11189C15.1772 3.8456 14.8571 3.71246 14.4832 3.71246H5.23673ZM5.23673 4.80028H14.4832C14.6645 4.80028 14.7551 4.89093 14.7551 5.07223V14.3187C14.7551 14.5 14.6645 14.5906 14.4832 14.5906H5.23673C5.05542 14.5906 4.96477 14.5 4.96477 14.3187V5.07223C4.96477 4.89093 5.05542 4.80028 5.23673 4.80028ZM7.49735 6.00708C7.49735 6.00708 7.45202 5.96175 7.36137 5.8711C7.27072 5.78045 7.09508 5.73512 6.83446 5.73512C6.57384 5.73512 6.35287 5.82578 6.17157 6.00708C5.99027 6.18838 5.89962 6.40934 5.89962 6.66997C5.89962 6.93059 5.99027 7.15155 6.17157 7.33286C6.35287 7.51416 6.57384 7.60481 6.83446 7.60481C7.09508 7.60481 7.31605 7.51416 7.49735 7.33286C7.67865 7.15155 7.7693 6.93059 7.7693 6.66997C7.7693 6.40934 7.67865 6.18838 7.49735 6.00708ZM11.7466 8.21671C11.0328 8.21671 10.5285 8.49433 10.2339 9.04957H10.1999V8.33569H8.67015V13.5028H10.2679V10.9533C10.2679 10.0694 10.5908 9.62748 11.2367 9.62748C11.4294 9.62748 11.588 9.66714 11.7126 9.74646C11.8373 9.82578 11.9223 9.94476 11.9676 10.1034C12.0129 10.262 12.0413 10.398 12.0526 10.5113C12.0639 10.6246 12.0696 10.7833 12.0696 10.9872V13.5028H13.6673V10.6643C13.6673 9.8711 13.5342 9.26487 13.2679 8.84561C13.0016 8.42634 12.4945 8.21671 11.7466 8.21671ZM6.05259 8.33569V13.5028H7.66732V8.33569H6.05259Z" fill="#06AD09"/>
</g>
</svg>
