<svg width="48" height="44" viewBox="0 0 48 44" fill="none" xmlns="http://www.w3.org/2000/svg">
<g id="Icon" clip-path="url(#clip0_1_133)">
<path id="Vector" d="M47.8346 14.4833C47.7786 13.7834 47.3447 13.1676 46.5328 12.6357C45.721 12.1038 44.5172 11.6418 42.9215 11.2499C42.9495 11.1379 42.9845 11.012 43.0265 10.872C43.0685 10.732 43.0895 10.606 43.0895 10.494V4.90909C43.0055 3.73331 41.9417 2.82347 39.8981 2.1796C37.8265 1.53572 35.5239 1.0598 32.9904 0.751862C30.4568 0.44392 28.0423 0.247955 25.7467 0.163971C23.4791 0.107983 22.0654 0.0799866 21.5055 0.0799866C20.9456 0.0799866 19.5319 0.107983 17.2643 0.163971C14.9967 0.247955 12.5962 0.44392 10.0626 0.751862C7.52909 1.0598 5.24052 1.53572 3.1969 2.1796C1.15328 2.82347 0.0894775 3.73331 0.00549316 4.90909V10.494C0.00549316 11.2499 0.446411 11.9218 1.32825 12.5097C2.21008 13.0976 3.37887 13.6155 4.83459 14.0634C4.83459 14.1474 4.8206 14.2174 4.7926 14.2733C4.76461 14.3293 4.75061 14.3993 4.75061 14.4833V20.0683C3.1829 20.4882 2.01412 20.9571 1.24426 21.475C0.474406 21.9929 0.0614827 22.5878 0.00549316 23.2597V28.8446C0.00549316 29.3485 0.229451 29.8315 0.677368 30.2934C1.12528 30.7553 1.74117 31.1822 2.52502 31.5741C2.49703 31.6581 2.47603 31.7421 2.46204 31.8261C2.44804 31.9101 2.44104 31.994 2.44104 32.078V37.663C2.44104 38.3069 2.79097 38.9088 3.49084 39.4687C4.19071 40.0006 5.12154 40.4765 6.28333 40.8964C7.44511 41.3163 8.79586 41.6802 10.3356 41.9882C11.8473 42.2961 13.429 42.5481 15.0807 42.744C15.1087 42.744 15.1297 42.744 15.1437 42.744C15.1577 42.744 15.1927 42.744 15.2487 42.744C15.2487 42.744 15.2767 42.744 15.3326 42.744C15.9765 42.828 16.6134 42.891 17.2433 42.933C17.8732 42.975 18.538 43.024 19.2379 43.08C19.2379 43.08 19.2519 43.08 19.2799 43.08C19.3079 43.08 19.3219 43.08 19.3219 43.08C20.1058 43.136 20.8966 43.178 21.6945 43.206C22.4923 43.234 23.2692 43.248 24.025 43.248C24.8089 43.248 25.5997 43.234 26.3976 43.206C27.1954 43.178 27.9863 43.136 28.7701 43.08C28.7701 43.08 28.7841 43.08 28.8121 43.08C28.8401 43.08 28.8541 43.08 28.8541 43.08C29.498 43.024 30.1489 42.975 30.8068 42.933C31.4646 42.891 32.1155 42.828 32.7594 42.744C32.7594 42.744 32.7664 42.744 32.7804 42.744C32.7944 42.744 32.8154 42.744 32.8434 42.744C32.8994 42.744 32.9344 42.744 32.9484 42.744C32.9624 42.744 32.9834 42.744 33.0114 42.744C34.663 42.5481 36.2448 42.2961 37.7565 41.9882C39.2962 41.6802 40.6469 41.3163 41.8087 40.8964C42.9705 40.4765 43.9013 40.0006 44.6012 39.4687C45.2731 38.9088 45.609 38.3069 45.609 37.663V32.078C45.581 31.5741 45.3641 31.1262 44.9581 30.7343C44.5522 30.3424 43.9293 29.9644 43.0895 29.6005C43.1455 29.4885 43.1875 29.3695 43.2155 29.2436C43.2435 29.1176 43.2574 29.0126 43.2574 28.9286V23.6796C44.6852 23.2597 45.833 22.7558 46.7008 22.1679C47.5686 21.58 48.0306 20.9081 48.0865 20.1523L47.8346 14.4833ZM41.4098 29.0126L41.1578 29.2646C40.9339 29.4325 40.6539 29.6215 40.318 29.8315C39.9821 30.0414 39.5761 30.2304 39.1002 30.3983V26.5771C39.5761 26.4091 40.017 26.2341 40.423 26.0522C40.8289 25.8702 41.1858 25.6812 41.4938 25.4853V28.7607C41.4938 28.8166 41.4798 28.8656 41.4518 28.9076C41.4238 28.9496 41.4098 28.9846 41.4098 29.0126ZM23.5211 32.7499C23.4931 32.7499 23.4441 32.7499 23.3741 32.7499C23.3042 32.7499 23.2412 32.7499 23.1852 32.7499C23.0732 32.7499 22.9402 32.7499 22.7863 32.7499C22.6323 32.7499 22.4853 32.7499 22.3453 32.7499V28.7607C22.4853 28.7607 22.6043 28.7607 22.7023 28.7607C22.8003 28.7607 22.9052 28.7607 23.0172 28.7607C23.0172 28.7607 23.0312 28.7607 23.0592 28.7607C23.0872 28.7607 23.1012 28.7607 23.1012 28.7607C23.4931 28.7607 23.892 28.7607 24.298 28.7607C24.7039 28.7607 25.1028 28.7327 25.4948 28.6767V32.6659C25.4108 32.6659 25.3268 32.6659 25.2428 32.6659C25.1588 32.6659 25.0748 32.6659 24.9908 32.6659C24.7669 32.6659 24.5289 32.6799 24.277 32.7079C24.025 32.7359 23.7731 32.7499 23.5211 32.7499ZM20.0778 32.7499C19.9098 32.7499 19.7278 32.7499 19.5319 32.7499C19.3359 32.7499 19.1539 32.7499 18.986 32.7499C18.93 32.7499 18.895 32.7499 18.881 32.7499C18.867 32.7499 18.832 32.7499 18.776 32.7499C18.58 32.7499 18.3771 32.7499 18.1671 32.7499C17.9572 32.7499 17.7402 32.7219 17.5162 32.6659V28.6767C17.9082 28.6767 18.3071 28.6907 18.713 28.7187C19.1189 28.7467 19.5179 28.7607 19.9098 28.7607C19.9098 28.7607 19.9238 28.7607 19.9518 28.7607C19.9798 28.7607 19.9938 28.7607 19.9938 28.7607C20.1058 28.7607 20.2107 28.7607 20.3087 28.7607C20.4067 28.7607 20.5257 28.7607 20.6656 28.7607V32.7499C20.5817 32.7499 20.4977 32.7499 20.4137 32.7499C20.3297 32.7499 20.2737 32.7499 20.2457 32.7499C20.2457 32.7499 20.2247 32.7499 20.1827 32.7499C20.1407 32.7499 20.1058 32.7499 20.0778 32.7499ZM5.67444 30.9023C5.67444 30.9023 5.66744 30.9023 5.65344 30.9023C5.63944 30.9023 5.64644 30.9023 5.67444 30.9023L5.59045 26.997C5.98238 27.081 6.36731 27.1789 6.74524 27.2909C7.12317 27.4029 7.52209 27.5009 7.94202 27.5849V31.4901C7.57808 31.4062 7.22815 31.3222 6.89221 31.2382C6.55627 31.1542 6.23433 31.0702 5.92639 30.9862C5.8984 30.9862 5.8634 30.9792 5.82141 30.9652C5.77942 30.9512 5.73043 30.9302 5.67444 30.9023ZM22.4293 37.495C22.5693 37.495 22.6883 37.495 22.7863 37.495C22.8842 37.495 22.9892 37.495 23.1012 37.495V41.5683C22.5693 41.5683 22.0304 41.5613 21.4845 41.5473C20.9386 41.5333 20.4137 41.5123 19.9098 41.4843V37.495C20.2737 37.495 20.6656 37.509 21.0856 37.537C21.5055 37.565 21.8974 37.579 22.2614 37.579C22.3173 37.523 22.3593 37.495 22.3873 37.495C22.4153 37.495 22.4293 37.495 22.4293 37.495ZM25.4948 37.495C25.8587 37.495 26.2506 37.488 26.6705 37.474C27.0905 37.46 27.4824 37.439 27.8463 37.411V41.4003C27.3424 41.4283 26.8175 41.4493 26.2716 41.4633C25.7257 41.4773 25.1868 41.4843 24.6549 41.4843V37.495C24.7669 37.495 24.8719 37.495 24.9698 37.495C25.0678 37.495 25.1868 37.495 25.3268 37.495C25.3548 37.495 25.3898 37.495 25.4318 37.495C25.4738 37.495 25.4948 37.495 25.4948 37.495ZM31.9196 37.1591V41.1483C31.5276 41.1763 31.1427 41.2113 30.7648 41.2533C30.3868 41.2953 29.9739 41.3163 29.526 41.3163V37.3271C29.9179 37.3271 30.3099 37.3061 30.7018 37.2641C31.0937 37.2221 31.4996 37.1871 31.9196 37.1591ZM33.4313 36.9911C33.8512 36.9351 34.2571 36.8861 34.649 36.8441C35.041 36.8022 35.4329 36.7392 35.8248 36.6552V40.5605C35.4329 40.6444 35.041 40.7074 34.649 40.7494C34.2571 40.7914 33.8512 40.8404 33.4313 40.8964V36.9911ZM37.5045 36.4032C37.9244 36.3192 38.3304 36.2283 38.7223 36.1303C39.1142 36.0323 39.4921 35.9273 39.8561 35.8153V39.5946C39.5201 39.6786 39.1492 39.7766 38.7433 39.8886C38.3374 40.0006 37.9244 40.0985 37.5045 40.1825V36.4032ZM10.3356 36.4032V40.2665C9.91565 40.1825 9.50273 40.0845 9.0968 39.9726C8.69088 39.8606 8.30595 39.7626 7.94202 39.6786V35.8993C8.33394 35.9833 8.72587 36.0673 9.1178 36.1513C9.50972 36.2353 9.91565 36.3192 10.3356 36.4032ZM11.9313 36.6552C12.3232 36.6832 12.7221 36.7322 13.1281 36.8022C13.534 36.8721 13.9329 36.9351 14.3248 36.9911V40.9804C13.9049 40.9244 13.499 40.8614 13.1071 40.7914C12.7151 40.7214 12.3232 40.6724 11.9313 40.6444V36.6552ZM15.9205 37.1591C16.3125 37.1871 16.7114 37.2221 17.1173 37.2641C17.5232 37.3061 17.9082 37.3271 18.2721 37.3271V41.3163C17.8522 41.2603 17.4532 41.2183 17.0753 41.1903C16.6974 41.1623 16.3125 41.1483 15.9205 41.1483V37.1591ZM13.9889 32.414C13.9329 32.414 13.8839 32.414 13.8419 32.414C13.7999 32.414 13.7649 32.414 13.7369 32.414C13.6809 32.414 13.646 32.414 13.632 32.414C13.618 32.414 13.597 32.414 13.569 32.414V28.4247C13.9329 28.4807 14.3178 28.5227 14.7238 28.5507C15.1297 28.5787 15.5286 28.5927 15.9205 28.5927V32.5819C15.5846 32.5539 15.2627 32.5329 14.9547 32.519C14.6468 32.505 14.3248 32.47 13.9889 32.414ZM11.9313 28.2567V32.246C11.5114 32.19 11.1054 32.127 10.7135 32.057C10.3216 31.9871 9.94364 31.9381 9.57971 31.9101V28.0048C9.94364 28.0048 10.3356 28.0258 10.7555 28.0678C11.1754 28.1098 11.5673 28.1728 11.9313 28.2567ZM27.5944 32.498C27.5104 32.498 27.4264 32.498 27.3424 32.498C27.2584 32.498 27.1744 32.498 27.0905 32.498V28.5087C27.5104 28.4807 27.9163 28.4597 28.3082 28.4457C28.7002 28.4317 29.0781 28.3967 29.442 28.3407V32.33C29.1901 32.386 28.9381 32.421 28.6862 32.435C28.4342 32.449 28.1823 32.47 27.9303 32.498C27.9023 32.498 27.8603 32.498 27.8043 32.498C27.7483 32.498 27.6783 32.498 27.5944 32.498ZM31.0797 32.162V28.1728C31.4996 28.1448 31.9056 28.1028 32.2975 28.0468C32.6894 27.9908 33.0673 27.9208 33.4313 27.8368V31.7421C33.0953 31.8261 32.7244 31.9031 32.3185 31.9731C31.9126 32.043 31.4996 32.106 31.0797 32.162ZM35.069 27.5849C35.4889 27.5009 35.8878 27.4169 36.2657 27.3329C36.6437 27.2489 37.0286 27.137 37.4205 26.997V30.8183C37.0846 30.9023 36.7137 31.0002 36.3077 31.1122C35.9018 31.2242 35.4889 31.3222 35.069 31.4062V27.5849ZM24.235 23.9315C23.927 23.9315 23.6261 23.9315 23.3322 23.9315C23.0382 23.9315 22.7373 23.9036 22.4293 23.8476C22.4293 23.8476 22.4153 23.8476 22.3873 23.8476C22.3593 23.8476 22.3453 23.8476 22.3453 23.8476V19.9003C22.7373 19.9003 23.1362 19.9143 23.5421 19.9423C23.948 19.9703 24.347 19.9843 24.7389 19.9843C24.7389 19.9843 24.7529 19.9843 24.7809 19.9843C24.8089 19.9843 24.8229 19.9843 24.8229 19.9843C24.9349 19.9843 25.0398 19.9843 25.1378 19.9843C25.2358 19.9843 25.3548 19.9843 25.4948 19.9843V23.9315C25.2708 23.9315 25.0678 23.9315 24.8859 23.9315C24.7039 23.9315 24.5149 23.9315 24.319 23.9315C24.319 23.9315 24.305 23.9315 24.277 23.9315C24.249 23.9315 24.235 23.9315 24.235 23.9315ZM5.59045 12.5937V8.81436C5.98238 8.89835 6.36731 8.99633 6.74524 9.10831C7.12317 9.22029 7.52209 9.31827 7.94202 9.40225V13.2655C7.91402 13.2655 7.87903 13.2655 7.83704 13.2655C7.79504 13.2655 7.74605 13.2375 7.69006 13.1815C7.4941 13.1536 7.29114 13.1186 7.08118 13.0766C6.87122 13.0346 6.65426 12.9856 6.4303 12.9296C6.31832 12.8176 6.18534 12.7476 6.03137 12.7196C5.8774 12.6916 5.73043 12.6496 5.59045 12.5937ZM20.0778 10.4101C20.1897 10.4101 20.2947 10.4101 20.3927 10.4101C20.4907 10.4101 20.6097 10.4101 20.7496 10.4101V14.3993C20.1897 14.3993 19.6508 14.3923 19.1329 14.3783C18.615 14.3643 18.0761 14.3433 17.5162 14.3153V10.3261C17.9082 10.3261 18.3071 10.3401 18.713 10.3681C19.1189 10.3961 19.5179 10.4101 19.9098 10.4101C19.9378 10.4101 19.9728 10.4101 20.0148 10.4101C20.0568 10.4101 20.0778 10.4101 20.0778 10.4101ZM23.1012 10.4101C23.4931 10.4101 23.892 10.4031 24.298 10.3891C24.7039 10.3751 25.1028 10.3541 25.4948 10.3261V14.3153C25.4108 14.3153 25.3408 14.3153 25.2848 14.3153C25.2288 14.3153 25.1588 14.3153 25.0748 14.3153C24.8229 14.3153 24.5499 14.3153 24.256 14.3153C23.962 14.3153 23.6891 14.3433 23.4371 14.3993C23.4091 14.3993 23.3741 14.3993 23.3322 14.3993C23.2902 14.3993 23.2412 14.3993 23.1852 14.3993C23.0732 14.3993 22.9402 14.3993 22.7863 14.3993C22.6323 14.3993 22.4853 14.3993 22.3453 14.3993V10.4101C22.4853 10.4101 22.6043 10.4101 22.7023 10.4101C22.8003 10.4101 22.9052 10.4101 23.0172 10.4101C23.0172 10.4101 23.0242 10.4101 23.0382 10.4101C23.0522 10.4101 23.0732 10.4101 23.1012 10.4101ZM41.3258 10.83L40.9899 11.0819C40.7659 11.2499 40.493 11.4179 40.171 11.5858C39.8491 11.7538 39.4921 11.9218 39.1002 12.0898V8.22647C39.5761 8.03051 40.017 7.84854 40.423 7.68057C40.8289 7.5126 41.1858 7.31664 41.4938 7.09268V10.4101C41.4938 10.494 41.4728 10.564 41.4308 10.62C41.3888 10.676 41.3538 10.746 41.3258 10.83ZM31.0797 13.8114V9.82217C31.4996 9.76619 31.9056 9.71719 32.2975 9.6752C32.6894 9.63321 33.0673 9.57022 33.4313 9.48624V13.3495C33.0953 13.4895 32.7244 13.5875 32.3185 13.6435C31.9126 13.6995 31.4996 13.7554 31.0797 13.8114ZM35.069 13.0976V9.23428C35.4889 9.1503 35.8878 9.05931 36.2657 8.96133C36.6437 8.86335 37.0286 8.75837 37.4205 8.64639V12.4257C37.0846 12.5937 36.7207 12.7266 36.3287 12.8246C35.9368 12.9226 35.5169 13.0136 35.069 13.0976ZM29.442 10.0741V14.0634C29.0781 14.0914 28.6932 14.1264 28.2872 14.1684C27.8813 14.2104 27.4824 14.2314 27.0905 14.2314V10.2421C27.5104 10.2421 27.9163 10.2211 28.3082 10.1791C28.7002 10.1371 29.0781 10.1021 29.442 10.0741ZM13.569 14.0634V10.0741C13.9329 10.1021 14.3178 10.1371 14.7238 10.1791C15.1297 10.2211 15.5286 10.2421 15.9205 10.2421V14.2314C15.5286 14.1754 15.1297 14.1404 14.7238 14.1264C14.3178 14.1124 13.9329 14.0914 13.569 14.0634ZM11.9313 9.90616V13.8954C11.8473 13.8954 11.7633 13.8884 11.6793 13.8744C11.5953 13.8604 11.5114 13.8394 11.4274 13.8114C11.3994 13.8114 11.3574 13.8044 11.3014 13.7904C11.2454 13.7764 11.1754 13.7554 11.0914 13.7274C10.8955 13.6715 10.6715 13.6295 10.4196 13.6015C10.1676 13.5735 9.94364 13.5595 9.74768 13.5595C9.69169 13.5595 9.6427 13.5525 9.60071 13.5385C9.55872 13.5245 9.52372 13.4895 9.49573 13.4335V9.57022C9.91565 9.59822 10.3356 9.64721 10.7555 9.71719C11.1754 9.78718 11.5673 9.85017 11.9313 9.90616ZM20.4977 23.7636C20.4417 23.7636 20.3787 23.7636 20.3087 23.7636C20.2387 23.7636 20.1897 23.7636 20.1617 23.7636C19.9098 23.7636 19.6578 23.7496 19.4059 23.7216C19.1539 23.6936 18.888 23.6516 18.608 23.5956C18.58 23.5956 18.538 23.5956 18.4821 23.5956C18.4261 23.5956 18.3561 23.5956 18.2721 23.5956C18.2721 23.5956 18.2441 23.5956 18.1881 23.5956V19.6483C18.58 19.6763 18.979 19.7113 19.3849 19.7533C19.7908 19.7953 20.1897 19.8163 20.5817 19.8163V23.7636C20.6097 23.7636 20.6097 23.7636 20.5817 23.7636C20.5537 23.7636 20.5257 23.7636 20.4977 23.7636ZM15.2487 23.1757C15.0807 23.1477 14.9267 23.1267 14.7867 23.1127C14.6468 23.0987 14.4928 23.0637 14.3248 23.0077V19.1444C14.6888 19.1724 15.0737 19.2214 15.4796 19.2914C15.8855 19.3614 16.2845 19.4244 16.6764 19.4804V23.4276C16.4804 23.3996 16.2565 23.3647 16.0045 23.3227C15.7526 23.2807 15.5006 23.2317 15.2487 23.1757C15.2767 23.1757 15.2837 23.1757 15.2697 23.1757C15.2557 23.1757 15.2487 23.1757 15.2487 23.1757ZM12.7711 18.8505V22.7558C12.3512 22.6718 11.9383 22.5738 11.5323 22.4618C11.1264 22.3498 10.7555 22.2519 10.4196 22.1679V18.3466C10.7555 18.4026 11.1264 18.4796 11.5323 18.5775C11.9383 18.6755 12.3512 18.7665 12.7711 18.8505ZM8.82385 17.7587V21.58C8.17997 21.328 7.66907 21.0761 7.29114 20.8241C6.91321 20.5722 6.65426 20.3482 6.51428 20.1523L6.4303 20.0683C6.4303 20.0683 6.4303 20.0543 6.4303 20.0263C6.4303 19.9983 6.4303 19.9843 6.4303 19.9843V16.6669C6.73824 16.8909 7.08118 17.0868 7.45911 17.2548C7.83704 17.4228 8.29195 17.5907 8.82385 17.7587ZM27.8463 19.9843C28.2382 19.9843 28.6372 19.9773 29.0431 19.9633C29.449 19.9493 29.8479 19.9283 30.2399 19.9003V23.8476C29.708 23.9036 29.1761 23.9315 28.6442 23.9315C28.1123 23.9315 27.5664 23.9315 27.0065 23.9315V19.9843C27.1464 19.9843 27.2654 19.9843 27.3634 19.9843C27.4614 19.9843 27.5664 19.9843 27.6783 19.9843C27.7343 19.9843 27.7763 19.9843 27.8043 19.9843C27.8323 19.9843 27.8463 19.9843 27.8463 19.9843ZM38.1764 23.0077C38.0084 23.0637 37.8335 23.0987 37.6515 23.1127C37.4695 23.1267 37.2806 23.1477 37.0846 23.1757C37.0006 23.1757 36.9026 23.1897 36.7906 23.2177C36.6787 23.2457 36.5807 23.2597 36.4967 23.2597C36.4127 23.2597 36.3147 23.2737 36.2028 23.3017C36.0908 23.3297 35.9928 23.3437 35.9088 23.3437V19.3964C36.3287 19.3404 36.7347 19.2914 37.1266 19.2494C37.5185 19.2074 37.8964 19.1444 38.2604 19.0605L38.1764 23.0077C38.2324 23.0077 38.2464 23.0077 38.2184 23.0077C38.1904 23.0077 38.1764 23.0077 38.1764 23.0077ZM32.7594 23.6796C32.5914 23.6796 32.4375 23.6866 32.2975 23.7006C32.1575 23.7146 32.0035 23.7356 31.8356 23.7636V19.8163C32.2555 19.7603 32.6614 19.7253 33.0533 19.7113C33.4453 19.6973 33.8232 19.6763 34.1871 19.6483V23.5956C33.9912 23.5956 33.7812 23.6096 33.5573 23.6376C33.3333 23.6656 33.0673 23.6796 32.7594 23.6796ZM41.9137 22.2519C41.6897 22.3079 41.4728 22.3708 41.2628 22.4408C41.0529 22.5108 40.8499 22.5598 40.6539 22.5878C40.5699 22.6438 40.465 22.6788 40.339 22.6928C40.213 22.7068 40.108 22.7278 40.024 22.7558C39.9961 22.7558 39.9751 22.7558 39.9611 22.7558C39.9471 22.7558 39.9121 22.7558 39.8561 22.7558V18.8505C40.304 18.7665 40.7169 18.6825 41.0948 18.5985C41.4728 18.5146 41.8577 18.4026 42.2496 18.2626V22.0839C42.1936 22.1399 42.1307 22.1749 42.0607 22.1889C41.9907 22.2029 41.9417 22.2239 41.9137 22.2519ZM46.2389 14.4833C46.1829 14.7353 45.861 15.0362 45.2731 15.3861C44.6852 15.7361 43.8453 16.079 42.7535 16.4149C41.3538 16.8349 39.5691 17.2338 37.3995 17.6117C35.2299 17.9897 32.7314 18.2346 29.9039 18.3466C29.764 18.3466 29.617 18.3466 29.463 18.3466C29.309 18.3466 29.1621 18.3466 29.0221 18.3466C28.9101 18.3466 28.7911 18.3466 28.6652 18.3466C28.5392 18.3466 28.4062 18.3466 28.2662 18.3466C27.9303 18.3466 27.5944 18.3466 27.2584 18.3466C26.9225 18.3466 26.5865 18.3466 26.2506 18.3466C25.9147 18.3466 25.5787 18.3466 25.2428 18.3466C24.9069 18.3466 24.5709 18.3466 24.235 18.3466C24.095 18.3466 23.962 18.3466 23.8361 18.3466C23.7101 18.3466 23.5771 18.3466 23.4371 18.3466C23.3252 18.3466 23.1922 18.3466 23.0382 18.3466C22.8842 18.3466 22.7373 18.3466 22.5973 18.3466C19.7978 18.2346 17.3133 18.0037 15.1437 17.6537C12.9741 17.3038 11.1754 16.8909 9.74768 16.4149C8.65588 16.079 7.81604 15.7431 7.22815 15.4071C6.64026 15.0712 6.31832 14.7633 6.26233 14.4833C6.26233 14.4833 6.26233 14.4763 6.26233 14.4623C6.26233 14.4483 6.26233 14.4273 6.26233 14.3993C6.31832 14.3993 6.35331 14.3993 6.36731 14.3993C6.38131 14.3993 6.4023 14.3993 6.4303 14.3993C6.59827 14.4273 6.75224 14.4623 6.89221 14.5043C7.03219 14.5463 7.18616 14.5953 7.35413 14.6513C8.16597 14.8192 9.00582 14.9662 9.87366 15.0922C10.7415 15.2182 11.6513 15.3511 12.6031 15.4911C13.247 15.5751 13.9049 15.6381 14.5768 15.6801C15.2487 15.7221 15.9205 15.7711 16.5924 15.8271C17.0963 15.8551 17.5862 15.876 18.0621 15.89C18.538 15.904 19.042 15.911 19.5739 15.911C19.8538 15.911 20.1407 15.911 20.4347 15.911C20.7286 15.911 21.0296 15.911 21.3375 15.911C21.5615 15.911 21.7784 15.911 21.9884 15.911C22.1984 15.911 22.4013 15.911 22.5973 15.911C24.053 15.883 25.4668 15.8271 26.8385 15.7431C28.2102 15.6591 29.533 15.5331 30.8068 15.3651C32.0805 15.1972 33.2773 15.0012 34.3971 14.7773C35.5449 14.5533 36.5807 14.3153 37.5045 14.0634C37.5885 14.0074 37.6725 13.9724 37.7565 13.9584C37.8405 13.9444 37.9244 13.9234 38.0084 13.8954C38.0644 13.8954 38.1134 13.8814 38.1554 13.8534C38.1974 13.8254 38.2604 13.8114 38.3444 13.8114C38.4843 13.7554 38.6313 13.7065 38.7853 13.6645C38.9393 13.6225 39.0722 13.5875 39.1842 13.5595C39.2402 13.5595 39.2752 13.5525 39.2892 13.5385C39.3032 13.5245 39.3242 13.4895 39.3522 13.4335C39.4921 13.4055 39.6111 13.3705 39.7091 13.3285C39.8071 13.2865 39.9121 13.2375 40.024 13.1815C40.08 13.1815 40.115 13.1676 40.129 13.1396C40.143 13.1116 40.164 13.0976 40.192 13.0976C40.332 13.0696 40.451 13.0276 40.549 12.9716C40.6469 12.9156 40.7379 12.8456 40.8219 12.7616C40.8499 12.7336 40.8849 12.7126 40.9269 12.6986C40.9689 12.6846 41.0179 12.6496 41.0739 12.5937C41.1018 12.5657 41.1368 12.5447 41.1788 12.5307C41.2208 12.5167 41.2698 12.4817 41.3258 12.4257C41.3538 12.4257 41.3748 12.4117 41.3888 12.3837C41.4028 12.3557 41.4378 12.3417 41.4938 12.3417C43.3414 12.8176 44.5802 13.2515 45.2101 13.6435C45.84 14.0354 46.1829 14.3153 46.2389 14.4833ZM21.5055 1.67569C24.8089 1.67569 27.6923 1.78767 30.1559 2.01163C32.6474 2.23558 34.726 2.51553 36.3917 2.85147C38.0574 3.18741 39.3102 3.53734 40.15 3.90128C40.9899 4.26521 41.4378 4.60115 41.4938 4.90909C41.4378 5.16104 41.1088 5.46199 40.507 5.81192C39.9051 6.16185 39.0722 6.50479 38.0084 6.84073C36.6087 7.26065 34.824 7.65958 32.6544 8.03751C30.4848 8.41544 27.9863 8.67439 25.1588 8.81436C25.0188 8.81436 24.8719 8.81436 24.7179 8.81436C24.5639 8.81436 24.4309 8.81436 24.319 8.81436C24.179 8.81436 24.046 8.81436 23.92 8.81436C23.7941 8.81436 23.6611 8.81436 23.5211 8.81436C23.1852 8.81436 22.8492 8.81436 22.5133 8.81436C22.1774 8.81436 21.8414 8.81436 21.5055 8.81436C21.1696 8.81436 20.8336 8.81436 20.4977 8.81436C20.1617 8.81436 19.8258 8.81436 19.4899 8.81436C19.3499 8.81436 19.2169 8.81436 19.0909 8.81436C18.965 8.81436 18.832 8.81436 18.692 8.81436C18.58 8.81436 18.4471 8.81436 18.2931 8.81436C18.1391 8.81436 17.9921 8.81436 17.8522 8.81436C15.1087 8.67439 12.6451 8.41544 10.4615 8.03751C8.27795 7.65958 6.48629 7.26065 5.08655 6.84073C4.02275 6.50479 3.1899 6.16885 2.58801 5.83292C1.98612 5.49698 1.65719 5.18904 1.6012 4.90909C1.62919 4.60115 2.06311 4.26521 2.90295 3.90128C3.7428 3.53734 4.99556 3.18741 6.66125 2.85147C8.32695 2.51553 10.3916 2.23558 12.8551 2.01163C15.3466 1.78767 18.2301 1.67569 21.5055 1.67569ZM1.6012 10.4101V7.09268C1.93713 7.31664 2.30107 7.5126 2.69299 7.68057C3.08492 7.84854 3.51884 8.03051 3.99475 8.22647V12.0058C3.23889 11.7538 2.651 11.4879 2.23108 11.2079C1.81116 10.928 1.6012 10.662 1.6012 10.4101ZM5.42249 21.496C5.98238 22.0559 6.80123 22.5598 7.87903 23.0077C8.95683 23.4556 10.1956 23.8196 11.5953 24.0995C11.6513 24.0995 11.6933 24.1065 11.7213 24.1205C11.7493 24.1345 11.7633 24.1555 11.7633 24.1835C11.8473 24.2395 11.9453 24.2745 12.0573 24.2885C12.1692 24.3025 12.2672 24.3375 12.3512 24.3935C13.667 24.6454 15.0877 24.8694 16.6134 25.0653C18.1391 25.2613 19.7418 25.4293 21.4215 25.5692C21.9814 25.5972 22.5343 25.6182 23.0802 25.6322C23.6261 25.6462 24.179 25.6532 24.7389 25.6532C24.9908 25.6532 25.2358 25.6532 25.4738 25.6532C25.7117 25.6532 25.9427 25.6532 26.1666 25.6532C26.4186 25.6532 26.6915 25.6532 26.9855 25.6532C27.2794 25.6532 27.5664 25.6532 27.8463 25.6532C28.3502 25.6532 28.8611 25.6392 29.379 25.6112C29.8969 25.5832 30.4078 25.5692 30.9117 25.5692C32.5914 25.4853 34.2081 25.3383 35.7618 25.1283C37.3156 24.9184 38.7643 24.6734 40.108 24.3935C39.8281 24.5614 39.4921 24.7154 39.1002 24.8554C38.7083 24.9954 38.2604 25.1493 37.7565 25.3173C37.0286 25.5413 36.1748 25.7652 35.1949 25.9892C34.2431 26.1851 33.1863 26.3741 32.0245 26.5561C30.8628 26.738 29.61 26.885 28.2662 26.997C26.9225 27.137 25.4808 27.2209 23.941 27.2489C23.8571 27.2489 23.7731 27.2489 23.6891 27.2489C23.6051 27.2489 23.5211 27.2489 23.4371 27.2489C23.3531 27.2489 23.2552 27.2489 23.1432 27.2489C23.0312 27.2489 22.9332 27.2489 22.8492 27.2489C22.5973 27.2489 22.3453 27.2489 22.0934 27.2489C21.8414 27.2489 21.5895 27.2489 21.3375 27.2489C21.0016 27.2489 20.6656 27.2489 20.3297 27.2489C19.9938 27.2489 19.6578 27.2489 19.3219 27.2489C19.1819 27.2489 19.049 27.2489 18.923 27.2489C18.797 27.2489 18.664 27.2489 18.524 27.2489C18.4121 27.2489 18.2791 27.2489 18.1251 27.2489C17.9712 27.2489 17.8242 27.2489 17.6842 27.2489C15.0247 27.025 12.6101 26.738 10.4406 26.3881C8.27096 26.0382 6.48629 25.6532 5.08655 25.2333C3.99475 24.8974 3.15491 24.5474 2.56702 24.1835C1.97913 23.8196 1.65719 23.5116 1.6012 23.2597C1.65719 23.0917 1.95113 22.8398 2.48303 22.5038C3.01493 22.1679 3.99475 21.8319 5.42249 21.496ZM1.6012 28.7607V25.4853C1.93713 25.6812 2.30107 25.8702 2.69299 26.0522C3.08492 26.2341 3.51884 26.4091 3.99475 26.5771V30.3983L3.57483 30.2304C2.93095 29.9784 2.44104 29.7265 2.1051 29.4745C1.76917 29.2226 1.6012 28.9846 1.6012 28.7607ZM3.99475 37.579V34.2616C4.33069 34.4856 4.69462 34.6885 5.08655 34.8705C5.47848 35.0525 5.8984 35.2274 6.34631 35.3954V39.1747C5.59045 38.8948 5.00956 38.6148 4.60364 38.3349C4.19771 38.0549 3.99475 37.803 3.99475 37.579ZM41.4938 39.1747V35.3954C41.9417 35.2274 42.3756 35.0525 42.7955 34.8705C43.2155 34.6885 43.5654 34.4856 43.8453 34.2616V37.579C43.8453 37.803 43.6424 38.0549 43.2365 38.3349C42.8305 38.6148 42.2496 38.8948 41.4938 39.1747ZM43.8453 31.994C43.8173 32.246 43.5094 32.5469 42.9215 32.8969C42.3336 33.2468 41.4938 33.5898 40.402 33.9257C39.0022 34.3456 37.2106 34.7445 35.027 35.1225C32.8434 35.5004 30.3379 35.7593 27.5104 35.8993C27.3984 35.8993 27.2584 35.8993 27.0905 35.8993C26.9225 35.8993 26.7825 35.8993 26.6705 35.8993C26.5306 35.8993 26.3976 35.8993 26.2716 35.8993C26.1456 35.8993 26.0267 35.8993 25.9147 35.8993C25.5787 35.8993 25.2428 35.8993 24.9069 35.8993C24.5709 35.8993 24.221 35.8993 23.8571 35.8993C23.5211 35.8993 23.1852 35.8993 22.8492 35.8993C22.5133 35.8993 22.1774 35.8993 21.8414 35.8993C21.7295 35.8993 21.6105 35.8993 21.4845 35.8993C21.3585 35.8993 21.2535 35.8993 21.1696 35.8993C21.0296 35.8993 20.8826 35.8993 20.7286 35.8993C20.5747 35.8993 20.4417 35.8993 20.3297 35.8993C17.5302 35.7593 15.0457 35.5004 12.8761 35.1225C10.7065 34.7445 8.89384 34.3456 7.43811 33.9257C6.4023 33.5898 5.59045 33.2608 5.00256 32.9389C4.41467 32.6169 4.07874 32.33 3.99475 32.078C4.10673 32.106 4.22571 32.141 4.35168 32.183C4.47766 32.225 4.61064 32.274 4.75061 32.33C4.75061 32.33 4.76461 32.33 4.7926 32.33C4.8206 32.33 4.83459 32.33 4.83459 32.33C4.94657 32.386 5.05155 32.428 5.14954 32.456C5.24752 32.484 5.3665 32.498 5.50647 32.498C5.56246 32.498 5.61145 32.512 5.65344 32.5399C5.69543 32.5679 5.73043 32.5819 5.75842 32.5819C5.84241 32.5819 5.91239 32.5959 5.96838 32.6239C6.02437 32.6519 6.09436 32.6659 6.17834 32.6659C7.63407 33.0579 9.26477 33.3798 11.0704 33.6317C12.8761 33.8837 14.7727 34.0657 16.7604 34.1776C17.4043 34.2336 18.0411 34.2686 18.671 34.2826C19.3009 34.2966 19.9378 34.3176 20.5817 34.3456C20.7496 34.3456 20.9176 34.3456 21.0856 34.3456C21.2535 34.3456 21.4215 34.3456 21.5895 34.3456C21.8134 34.3456 22.0304 34.3456 22.2404 34.3456C22.4503 34.3456 22.6813 34.3456 22.9332 34.3456C23.5211 34.3456 24.102 34.3316 24.6759 34.3036C25.2498 34.2756 25.8307 34.2336 26.4186 34.1776C27.0905 34.1496 27.7623 34.1077 28.4342 34.0517C29.1061 33.9957 29.764 33.9257 30.4078 33.8417C30.4078 33.8417 30.4358 33.8417 30.4918 33.8417C31.1917 33.7577 31.8776 33.6737 32.5494 33.5898C33.2213 33.5058 33.8512 33.3938 34.4391 33.2538C34.5791 33.2258 34.712 33.2048 34.838 33.1908C34.964 33.1768 35.097 33.1418 35.2369 33.0858C35.2649 33.0858 35.2859 33.0858 35.2999 33.0858C35.3139 33.0858 35.3489 33.0858 35.4049 33.0858C36.5807 32.8339 37.6585 32.5539 38.6383 32.246C39.6181 31.9381 40.458 31.6021 41.1578 31.2382C41.1858 31.2382 41.2208 31.2242 41.2628 31.1962C41.3048 31.1682 41.3538 31.1542 41.4098 31.1542C41.4378 31.0982 41.4728 31.0632 41.5148 31.0492C41.5568 31.0352 41.6058 31.0142 41.6617 30.9862C41.6897 30.9302 41.7247 30.8953 41.7667 30.8813C41.8087 30.8673 41.8577 30.8463 41.9137 30.8183C42.6136 31.0702 43.1035 31.3082 43.3834 31.5321C43.6634 31.7561 43.8173 31.9101 43.8453 31.994ZM43.8453 21.58V17.7587C44.3212 17.5907 44.7622 17.4228 45.1681 17.2548C45.574 17.0868 45.931 16.8909 46.2389 16.6669V19.9843C46.2389 20.2362 46.0289 20.5022 45.609 20.7821C45.1891 21.0621 44.6012 21.328 43.8453 21.58Z" fill="#6B59ED"/>
</g>
<defs>
<clipPath id="clip0_1_133">
<rect width="47.84" height="43" fill="white" transform="matrix(1 0 0 -1 0 43.08)"/>
</clipPath>
</defs>
</svg>
