<svg width="43" height="44" viewBox="0 0 43 44" fill="none" xmlns="http://www.w3.org/2000/svg">
<g id="Icon" clip-path="url(#clip0_1_138)">
<path id="Vector" d="M42.748 1.50772C42.7201 1.31176 42.6431 1.15079 42.5171 1.02481C42.3911 0.898834 42.2301 0.82185 42.0342 0.793854C40.3825 0.569897 38.7098 0.548901 37.0161 0.730865C35.3224 0.91283 33.6917 1.26976 32.124 1.80167C30.5283 2.36156 29.0096 3.08943 27.5679 3.98526C26.1261 4.88109 24.8174 5.9309 23.6416 7.13467L18.2246 12.5517L10.3721 13.5595C10.2881 13.5595 10.2111 13.5805 10.1411 13.6225C10.0711 13.6645 9.99414 13.7134 9.91016 13.7694L2.39355 21.328C2.28158 21.412 2.20459 21.531 2.1626 21.685C2.12061 21.8389 2.1276 21.9859 2.18359 22.1259C2.23958 22.2659 2.32357 22.3848 2.43555 22.4828C2.54753 22.5808 2.6735 22.6438 2.81348 22.6718L8.52441 23.7216L9.61621 24.8554L7.26465 26.1571C7.15267 26.2131 7.05469 26.2971 6.9707 26.4091C6.88672 26.5211 6.84473 26.633 6.84473 26.745C6.81673 26.885 6.82373 27.011 6.86572 27.123C6.90771 27.2349 6.9707 27.3469 7.05469 27.4589L16.083 36.4872C16.167 36.5712 16.258 36.6342 16.356 36.6762C16.4539 36.7182 16.5589 36.7392 16.6709 36.7392C16.6989 36.7392 16.7199 36.7322 16.7339 36.7182C16.7479 36.7042 16.7689 36.6972 16.7969 36.6972C16.9089 36.6972 17.0208 36.6552 17.1328 36.5712C17.2448 36.4872 17.3288 36.3892 17.3848 36.2773L18.6865 33.9257L19.8203 35.0175L20.8701 40.7284C20.8981 40.8684 20.9611 40.9944 21.0591 41.1064C21.1571 41.2183 21.276 41.3023 21.416 41.3583C21.444 41.3583 21.479 41.3653 21.521 41.3793C21.563 41.3933 21.612 41.4003 21.668 41.4003C21.752 41.4003 21.8499 41.3793 21.9619 41.3373C22.0739 41.2953 22.1579 41.2323 22.2139 41.1483L29.7725 33.6317C29.8285 33.5478 29.8774 33.4708 29.9194 33.4008C29.9614 33.3308 29.9824 33.2398 29.9824 33.1278L30.9902 25.3173L36.4072 19.9003C37.611 18.7245 38.6608 17.4158 39.5566 15.974C40.4525 14.5323 41.1803 13.0136 41.7402 11.4179C42.2721 9.85017 42.6291 8.21947 42.811 6.52579C42.993 4.8321 42.972 3.15941 42.748 1.50772ZM8.65039 22.1259L4.61914 21.37L10.876 15.1132L16.335 14.3993L8.65039 22.1259ZM16.4609 34.5556L8.98633 27.081L10.834 26.0732L17.4688 32.7079L16.4609 34.5556ZM28.4287 32.6659L22.1719 38.9228L21.416 34.8915L29.1426 27.2069L28.4287 32.6659ZM35.2734 18.7665L20.5342 33.5058L10.0361 23.0077L24.7754 8.26846C25.8392 7.20466 27.022 6.25984 28.3237 5.43399C29.6255 4.60814 30.9762 3.94327 32.376 3.43936C32.5719 4.39119 32.8939 5.29402 33.3418 6.14786C33.7897 7.0017 34.3636 7.77855 35.0635 8.47842C35.7633 9.1783 36.5402 9.75219 37.394 10.2001C38.2479 10.648 39.1507 10.97 40.1025 11.1659C39.5986 12.5657 38.9338 13.9164 38.1079 15.2182C37.2821 16.5199 36.3372 17.7027 35.2734 18.7665ZM40.5645 9.57022C39.7526 9.43025 38.9757 9.1713 38.2339 8.79337C37.492 8.41544 36.8132 7.93253 36.1973 7.34464C35.6094 6.72875 35.1265 6.04988 34.7485 5.30801C34.3706 4.56615 34.1117 3.7893 33.9717 2.97745C35.1475 2.64151 36.3442 2.42455 37.562 2.32657C38.7798 2.22859 39.9906 2.23558 41.1943 2.34756C41.3063 3.55134 41.3133 4.76212 41.2153 5.97989C41.1174 7.19766 40.9004 8.39444 40.5645 9.57022ZM23.9775 12.5937C23.0257 13.5455 22.5498 14.7073 22.5498 16.079C22.5498 17.4508 23.0257 18.6125 23.9775 19.5644C24.4535 20.0403 24.9993 20.3972 25.6152 20.6352C26.2311 20.8731 26.847 20.9921 27.4629 20.9921C28.1068 20.9921 28.7297 20.8731 29.3315 20.6352C29.9334 20.3972 30.4723 20.0403 30.9482 19.5644C31.9281 18.6125 32.418 17.4508 32.418 16.079C32.418 14.7073 31.9281 13.5455 30.9482 12.5937C29.9964 11.6138 28.8346 11.1239 27.4629 11.1239C26.0911 11.1239 24.9294 11.6138 23.9775 12.5937ZM29.8145 18.3886C29.1706 19.0325 28.3937 19.3544 27.4839 19.3544C26.5741 19.3544 25.7972 19.0325 25.1533 18.3886C24.4814 17.7447 24.1455 16.9678 24.1455 16.058C24.1455 15.1482 24.4814 14.3713 25.1533 13.7274C25.4613 13.4195 25.8182 13.1815 26.2241 13.0136C26.63 12.8456 27.043 12.7616 27.4629 12.7616C27.8828 12.7616 28.2957 12.8456 28.7017 13.0136C29.1076 13.1815 29.4785 13.4195 29.8145 13.7274C30.4583 14.3713 30.7803 15.1482 30.7803 16.058C30.7803 16.9678 30.4583 17.7447 29.8145 18.3886ZM10.666 33.0439C10.498 32.8759 10.3021 32.7919 10.0781 32.7919C9.85417 32.7919 9.6582 32.8759 9.49023 33.0439L2.51953 40.0146C2.37956 40.1825 2.30957 40.3785 2.30957 40.6024C2.30957 40.8264 2.37956 41.0084 2.51953 41.1483C2.60352 41.2323 2.6945 41.2953 2.79248 41.3373C2.89046 41.3793 2.99544 41.4003 3.10742 41.4003C3.2194 41.4003 3.32438 41.3793 3.42236 41.3373C3.52034 41.2953 3.61133 41.2323 3.69531 41.1483L10.666 34.1776C10.806 34.0377 10.876 33.8487 10.876 33.6107C10.876 33.3728 10.806 33.1838 10.666 33.0439ZM11.7158 35.2694L8.6084 38.4189C8.44043 38.5588 8.35645 38.7408 8.35645 38.9648C8.35645 39.1887 8.44043 39.3847 8.6084 39.5526C8.66439 39.6366 8.74837 39.6996 8.86035 39.7416C8.97233 39.7836 9.07031 39.8046 9.1543 39.8046C9.26628 39.8046 9.37126 39.7836 9.46924 39.7416C9.56722 39.6996 9.6582 39.6366 9.74219 39.5526L12.8916 36.4032C13.0316 36.2353 13.1016 36.0393 13.1016 35.8153C13.1016 35.5914 13.0316 35.4094 12.8916 35.2694C12.7236 35.1015 12.5277 35.0175 12.3037 35.0175C12.0798 35.0175 11.8838 35.1015 11.7158 35.2694ZM7.47461 39.8466C7.30664 39.8466 7.15267 39.8956 7.0127 39.9936C6.87272 40.0915 6.77474 40.2245 6.71875 40.3925C6.66276 40.5325 6.66276 40.6864 6.71875 40.8544C6.77474 41.0224 6.85872 41.1623 6.9707 41.2743C7.11068 41.3863 7.27165 41.4493 7.45361 41.4633C7.63558 41.4773 7.79655 41.4283 7.93652 41.3163C8.10449 41.2043 8.21647 41.0574 8.27246 40.8754C8.32845 40.6934 8.31445 40.5185 8.23047 40.3505C8.17448 40.1825 8.0765 40.0565 7.93652 39.9726C7.79655 39.8886 7.64258 39.8466 7.47461 39.8466ZM8.23047 40.3505C8.25846 40.3785 8.26546 40.3785 8.25146 40.3505C8.23747 40.3225 8.23047 40.3225 8.23047 40.3505ZM5.20703 41.7782L4.74512 42.2401C4.60514 42.3801 4.53516 42.5621 4.53516 42.786C4.53516 43.01 4.60514 43.206 4.74512 43.3739C4.8291 43.4579 4.92008 43.5209 5.01807 43.5629C5.11605 43.6049 5.22103 43.6259 5.33301 43.6259C5.44499 43.6259 5.54997 43.6049 5.64795 43.5629C5.74593 43.5209 5.83691 43.4579 5.9209 43.3739L6.34082 42.954C6.50879 42.786 6.59277 42.5901 6.59277 42.3661C6.59277 42.1422 6.50879 41.9462 6.34082 41.7782C6.17285 41.6383 5.97689 41.5683 5.75293 41.5683C5.52897 41.5683 5.34701 41.6383 5.20703 41.7782ZM4.61914 34.6396C4.45117 34.4716 4.25521 34.3876 4.03125 34.3876C3.80729 34.3876 3.61133 34.4716 3.44336 34.6396L0.293945 37.789C0.153971 37.9569 0.0839844 38.1529 0.0839844 38.3769C0.0839844 38.6008 0.153971 38.7828 0.293945 38.9228C0.37793 39.0067 0.468913 39.0697 0.566895 39.1117C0.664876 39.1537 0.769857 39.1747 0.881836 39.1747C0.993815 39.1747 1.0988 39.1537 1.19678 39.1117C1.29476 39.0697 1.38574 39.0067 1.46973 38.9228L4.61914 35.7733C4.75911 35.6334 4.8291 35.4514 4.8291 35.2274C4.8291 35.0035 4.75911 34.8075 4.61914 34.6396ZM5.9209 34.3456C6.06087 34.2896 6.19385 34.1986 6.31982 34.0727C6.4458 33.9467 6.50879 33.7997 6.50879 33.6317C6.53678 33.4638 6.50879 33.3028 6.4248 33.1488C6.34082 32.9949 6.22884 32.8899 6.08887 32.8339C5.9209 32.7499 5.74593 32.7219 5.56396 32.7499C5.382 32.7779 5.23503 32.8619 5.12305 33.0019C4.98307 33.1138 4.90609 33.2678 4.89209 33.4638C4.87809 33.6597 4.92708 33.8417 5.03906 34.0097C5.12305 34.1496 5.24902 34.2476 5.41699 34.3036C5.58496 34.3596 5.75293 34.3736 5.9209 34.3456ZM8.02051 32.414L8.44043 31.9521C8.6084 31.8121 8.69238 31.6301 8.69238 31.4062C8.69238 31.1822 8.6084 30.9862 8.44043 30.8183C8.27246 30.6503 8.0765 30.5663 7.85254 30.5663C7.62858 30.5663 7.44661 30.6503 7.30664 30.8183L6.84473 31.2382C6.70475 31.4062 6.63477 31.6021 6.63477 31.8261C6.63477 32.05 6.70475 32.246 6.84473 32.414C6.92871 32.47 7.01969 32.519 7.11768 32.5609C7.21566 32.6029 7.32064 32.6239 7.43262 32.6239C7.5446 32.6239 7.64958 32.6029 7.74756 32.5609C7.84554 32.519 7.93652 32.47 8.02051 32.414Z" fill="#6B59ED"/>
</g>
<defs>
<clipPath id="clip0_1_138">
<rect width="43" height="43" fill="white" transform="matrix(1 0 0 -1 0 43.08)"/>
</clipPath>
</defs>
</svg>
