<svg width="43" height="44" viewBox="0 0 43 44" fill="none" xmlns="http://www.w3.org/2000/svg">
<g id="Icon" clip-path="url(#clip0_1_128)">
<path id="Vector" d="M18.6025 13.6855C18.0146 13.6855 17.5177 13.8884 17.1118 14.2943C16.7059 14.7003 16.5029 15.1972 16.5029 15.7851H17.9307C17.9307 15.5891 18.0007 15.4281 18.1406 15.3022C18.2806 15.1762 18.4346 15.1132 18.6025 15.1132C18.8265 15.1132 18.9945 15.1832 19.1064 15.3232C19.2184 15.4631 19.2744 15.6171 19.2744 15.7851H20.7441C20.7721 15.2532 20.5692 14.7703 20.1353 14.3363C19.7013 13.9024 19.1904 13.6855 18.6025 13.6855ZM24.3975 13.6855C23.8096 13.6855 23.3057 13.8884 22.8857 14.2943C22.4658 14.7003 22.2559 15.1972 22.2559 15.7851H23.7256C23.7256 15.5891 23.7956 15.4281 23.9355 15.3022C24.0755 15.1762 24.2295 15.1132 24.3975 15.1132C24.5934 15.1132 24.7544 15.1832 24.8804 15.3232C25.0063 15.4631 25.0693 15.6171 25.0693 15.7851H26.4971C26.4971 15.2532 26.2941 14.7703 25.8882 14.3363C25.4823 13.9024 24.9854 13.6855 24.3975 13.6855ZM21.5 33.0439C20.6882 33.0439 20.0023 33.3238 19.4424 33.8837C18.8825 34.4436 18.6025 35.1295 18.6025 35.9413C18.6025 36.7532 18.8825 37.439 19.4424 37.9989C20.0023 38.5588 20.6882 38.8388 21.5 38.8388C22.3118 38.8388 22.9977 38.5588 23.5576 37.9989C24.1175 37.439 24.3975 36.7532 24.3975 35.9413C24.3975 35.1295 24.1175 34.4436 23.5576 33.8837C22.9977 33.3238 22.3118 33.0439 21.5 33.0439ZM21.5 37.369C21.1081 37.369 20.7721 37.2291 20.4922 36.9491C20.2122 36.6692 20.0723 36.3332 20.0723 35.9413C20.0723 35.5494 20.2122 35.2134 20.4922 34.9335C20.7721 34.6536 21.1081 34.5136 21.5 34.5136C21.8919 34.5136 22.2279 34.6536 22.5078 34.9335C22.7878 35.2134 22.9277 35.5494 22.9277 35.9413C22.9277 36.3332 22.7878 36.6692 22.5078 36.9491C22.2279 37.2291 21.8919 37.369 21.5 37.369ZM38.6748 41.6523V32.372C38.6748 30.8883 38.3949 29.4885 37.835 28.1728C37.2471 26.857 36.4632 25.7092 35.4834 24.7294C34.5036 23.7496 33.3698 22.9797 32.082 22.4198C30.7663 21.8599 29.3665 21.58 27.8828 21.58H27.2109C27.3229 21.44 27.4419 21.321 27.5679 21.2231C27.6938 21.1251 27.8268 21.0201 27.9668 20.9081H28.7227C29.7025 20.9081 30.5423 20.5582 31.2422 19.8583C31.9421 19.1584 32.292 18.3186 32.292 17.3388V16.037C32.7119 15.7571 33.0549 15.3861 33.3208 14.9242C33.5868 14.4623 33.7197 13.9374 33.7197 13.3495C33.7197 12.7896 33.5868 12.2717 33.3208 11.7958C33.0549 11.3199 32.7119 10.928 32.292 10.62C32.236 9.1643 31.9281 7.80655 31.3682 6.54678C30.7803 5.25902 30.0034 4.13923 29.0376 3.18741C28.0718 2.23558 26.931 1.47972 25.6152 0.91983C24.3275 0.359936 22.9557 0.0799866 21.5 0.0799866C20.0443 0.0799866 18.6725 0.359936 17.3848 0.91983C16.069 1.47972 14.9282 2.23558 13.9624 3.18741C12.9966 4.13923 12.2337 5.25902 11.6738 6.54678C11.1139 7.80655 10.82 9.1643 10.792 10.62C10.3721 10.928 10.0291 11.3059 9.76318 11.7538C9.49723 12.2017 9.36426 12.7336 9.36426 13.3495C9.36426 14.2454 9.6792 15.0082 10.3091 15.6381C10.939 16.268 11.7018 16.5829 12.5977 16.5829H13.1016C13.2695 17.5627 13.5985 18.4796 14.0884 19.3334C14.5783 20.1872 15.1732 20.9361 15.873 21.58H15.1172C13.6335 21.58 12.2477 21.8599 10.96 22.4198C9.64421 22.9797 8.50342 23.7496 7.5376 24.7294C6.57178 25.7092 5.80892 26.857 5.24902 28.1728C4.68913 29.4885 4.40918 30.8883 4.40918 32.372V41.7362H0V43.164H43V41.7362H38.6748V41.6523ZM30.8643 17.2548C30.8643 17.8147 30.6753 18.2836 30.2974 18.6615C29.9194 19.0395 29.4785 19.2704 28.9746 19.3544C29.2266 18.9345 29.4365 18.4936 29.6045 18.0316C29.7725 17.5697 29.8984 17.0868 29.9824 16.5829H30.5283C30.5563 16.5829 30.6053 16.5829 30.6753 16.5829C30.7453 16.5829 30.8083 16.5829 30.8643 16.5829V17.2548ZM32.292 13.3495C32.292 13.8534 32.124 14.2733 31.7881 14.6093C31.4521 14.9452 31.0322 15.1132 30.5283 15.1132H30.1504V11.5439H30.5283C30.9762 11.5439 31.3822 11.7118 31.7461 12.0478C32.11 12.3837 32.292 12.8176 32.292 13.3495ZM12.9336 15.1132H12.5977C12.0658 15.1132 11.6318 14.9452 11.2959 14.6093C10.96 14.2733 10.792 13.8534 10.792 13.3495C10.792 12.8176 10.96 12.3837 11.2959 12.0478C11.6318 11.7118 12.0658 11.5439 12.5977 11.5439H12.9336V15.1132ZM12.5977 10.1161C12.5417 10.1161 12.4787 10.1161 12.4087 10.1161C12.3387 10.1161 12.2757 10.1161 12.2197 10.1161C12.3037 8.91234 12.6117 7.77855 13.1436 6.71475C13.6475 5.65095 14.3123 4.72712 15.1382 3.94327C15.964 3.15941 16.9229 2.54353 18.0146 2.09561C19.1064 1.64769 20.2682 1.42374 21.5 1.42374C22.7318 1.42374 23.8936 1.64769 24.9854 2.09561C26.0771 2.54353 27.036 3.15941 27.8618 3.94327C28.6877 4.72712 29.3525 5.65095 29.8564 6.71475C30.3883 7.77855 30.6963 8.91234 30.7803 10.1161C30.7243 10.1161 30.6613 10.1161 30.5913 10.1161C30.5213 10.1161 30.4583 10.1161 30.4023 10.1161H29.8984C29.5625 8.0725 28.5967 6.37181 27.001 5.01407C25.4053 3.65632 23.5436 2.97745 21.416 2.97745C19.2884 2.97745 17.4268 3.66332 15.8311 5.03506C14.2354 6.40681 13.2695 8.10049 12.9336 10.1161H12.5977ZM28.6387 11.5439C26.0352 11.4599 23.9565 10.977 22.4028 10.0951C20.8491 9.21329 20.0723 8.28246 20.0723 7.30264C20.0723 7.07869 19.9953 6.91072 19.8413 6.79874C19.6873 6.68676 19.5264 6.63077 19.3584 6.63077C19.1624 6.63077 19.0015 6.70076 18.8755 6.84073C18.7495 6.9807 18.6865 7.13467 18.6865 7.30264C18.6865 8.19847 18.2806 8.98233 17.4688 9.65421C16.6569 10.3261 15.6491 10.732 14.4453 10.872C14.6133 9.08031 15.3761 7.56859 16.7339 6.33682C18.0916 5.10505 19.7083 4.48917 21.584 4.48917C23.4876 4.46117 25.1393 5.13305 26.5391 6.50479C27.9388 7.87654 28.6387 9.55622 28.6387 11.5439ZM14.3613 15.1132V12.2157C15.4531 12.1317 16.4609 11.8378 17.3848 11.3339C18.3086 10.83 18.9945 10.2001 19.4424 9.44424C20.2262 10.4241 21.437 11.2429 23.0747 11.9008C24.7124 12.5587 26.5951 12.9296 28.7227 13.0136V15.1132C28.7227 15.925 28.5967 16.6949 28.3447 17.4228C28.0928 18.1506 27.7428 18.8225 27.2949 19.4384H21.584V20.9081H25.8252C25.6292 21.0761 25.4193 21.2231 25.1953 21.349C24.9714 21.475 24.7334 21.58 24.4814 21.664C23.5296 22.0839 22.5428 22.2939 21.521 22.2939C20.4992 22.2939 19.4984 22.0839 18.5186 21.664C17.2868 21.1041 16.286 20.2362 15.5161 19.0605C14.7463 17.8847 14.3613 16.5689 14.3613 15.1132ZM19.2744 23.4696C19.6383 23.5536 20.0023 23.6306 20.3662 23.7006C20.7301 23.7706 21.1081 23.8056 21.5 23.8056C21.8919 23.8056 22.2699 23.7776 22.6338 23.7216C22.9977 23.6656 23.3617 23.5816 23.7256 23.4696L21.5 27.8788L19.2744 23.4696ZM20.3242 28.7187H19.0225L16.251 23.0077H17.5107L20.3242 28.7187ZM25.4893 23.0077H26.749L23.8936 28.7187H22.5918L25.4893 23.0077ZM7.89453 32.372V41.7362H5.71094V32.372C5.71094 31.1122 5.9349 29.9364 6.38281 28.8446C6.83073 27.7248 7.46061 26.752 8.27246 25.9262C9.08431 25.1003 10.0361 24.4355 11.1279 23.9315C12.1917 23.4276 13.3535 23.1477 14.6133 23.0917L17.5107 28.8026H11.4639C10.484 28.7467 9.64421 29.0756 8.94434 29.7895C8.24447 30.5033 7.89453 31.3642 7.89453 32.372ZM33.6357 41.6523H9.36426V32.372C9.36426 31.7841 9.56722 31.2802 9.97314 30.8603C10.3791 30.4403 10.876 30.2304 11.4639 30.2304H31.5361C32.124 30.2304 32.6209 30.4403 33.0269 30.8603C33.4328 31.2802 33.6357 31.7841 33.6357 32.372V41.6523ZM37.2891 41.6523H35.1895V32.372C35.1895 31.3922 34.8395 30.5523 34.1396 29.8524C33.4398 29.1526 32.5999 28.8026 31.6201 28.8026H25.4893L28.3867 23.0917C29.6185 23.1757 30.7803 23.4696 31.8721 23.9735C32.9359 24.4774 33.8737 25.1493 34.6855 25.9892C35.4974 26.829 36.1413 27.7948 36.6172 28.8866C37.0651 29.9784 37.2891 31.1402 37.2891 32.372V41.6523ZM30.8643 35.1855H32.292V40.1825H30.8643V35.1855ZM30.8643 32.372H32.292V33.7997H30.8643V32.372ZM37.2891 6.54678H38.7588V7.97452H37.2891V6.54678ZM37.2891 9.44424H38.7588V10.872H37.2891V9.44424ZM37.2891 12.2157H38.7588V13.6855H37.2891V12.2157ZM4.3252 15.1132H5.79492V16.5829H4.3252V15.1132ZM4.3252 18.0107H5.79492V19.4384H4.3252V18.0107ZM4.3252 20.9081H5.79492V22.3358H4.3252V20.9081Z" fill="#6B59ED"/>
</g>
<defs>
<clipPath id="clip0_1_128">
<rect width="43" height="43" fill="white" transform="matrix(1 0 0 -1 0 43.08)"/>
</clipPath>
</defs>
</svg>
