<svg width="19" height="19" viewBox="0 0 19 19" fill="none" xmlns="http://www.w3.org/2000/svg">
<g id="Icon" clip-path="url(#clip0_1_279)">
<path id="Vector" d="M16.733 18.374H2.98694V2.06152H5.53577V2.78223H3.70764V17.6357H16.0123V2.78223H14.1315V2.06152H16.733V18.374ZM14.8698 4.39941H4.85022L5.55334 1.18262H14.1842L14.8698 4.39941ZM5.76428 3.66113H13.9908L13.5865 1.9209H6.13342L5.76428 3.66113ZM8.2428 10.0244H5.09631V6.66699H8.2428V10.0244ZM5.83459 9.30371H7.52209V7.40527H5.83459V9.30371ZM9.59631 7.98535H14.2545V8.70605H9.59631V7.98535ZM8.2428 14.9287H5.09631V11.5713H8.2428V14.9287ZM5.83459 14.208H7.52209V12.292H5.83459V14.208ZM9.59631 12.8896H14.2545V13.6104H9.59631V12.8896Z" fill="#06AD09"/>
</g>
<defs>
<clipPath id="clip0_1_279">
<rect width="18" height="18" fill="white" transform="matrix(1 0 0 -1 0.859985 18.5498)"/>
</clipPath>
</defs>
</svg>
