<svg width="19" height="19" viewBox="0 0 19 19" fill="none" xmlns="http://www.w3.org/2000/svg">
<g id="Icon">
<path id="Vector" d="M6.74948 3.99542L4.96478 5.78013L4.26789 5.08324L3.48602 5.86511L4.57384 6.95293L4.96478 7.32687L5.35571 6.95293L7.53135 4.77729L6.74948 3.99542ZM9.31605 4.93027V6.01809H16.3869V4.93027H9.31605ZM6.74948 8.3467L4.96478 10.1314L4.26789 9.43452L3.48602 10.2164L4.57384 11.3042L4.96478 11.6781L5.35571 11.3042L7.53135 9.12857L6.74948 8.3467ZM9.31605 9.28154V10.3694H16.3869V9.28154H9.31605ZM6.74948 12.698L4.96478 14.4827L4.26789 13.7858L3.48602 14.5677L4.57384 15.6555L4.96478 16.0294L5.35571 15.6555L7.53135 13.4798L6.74948 12.698ZM9.31605 13.6328V14.7206H16.3869V13.6328H9.31605Z" fill="#06AD09"/>
</g>
</svg>
